{
  "accessors": [
    {
      "bufferView": 2,
      "componentType": 5126,
      "count": 6836,
      "max": [
        518.316162109375,
        1163.0908203125,
        577.722900390625
      ],
      "min": [
        -520.2273559570313,
        997.50048828125,
        -562.3799438476563
      ],
      "type": "VEC3"
    },
    {
      "bufferView": 2,
      "byteOffset": 82032,
      "componentType": 5126,
      "count": 6836,
      "max": [
        0.999529242515564,
        0.9997721314430237,
        0.9985837936401367
      ],
      "min": [
        -0.9993288516998291,
        -0.9995713829994202,
        -0.9994739294052124
      ],
      "type": "VEC3"
    },
    {
      "bufferView": 1,
      "componentType": 5126,
      "count": 6836,
      "max": [
        0.0,
        0.0
      ],
      "min": [
        0.0,
        0.0
      ],
      "type": "VEC2"
    },
    {
      "bufferView": 1,
      "byteOffset": 54688,
      "componentType": 5126,
      "count": 6836,
      "max": [
        1.0013428926467896,
        0.9943923950195313
      ],
      "min": [
        -1.9813093388165726e-08,
        -0.007289467379450798
      ],
      "type": "VEC2"
    },
    {
      "bufferView": 0,
      "componentType": 5125,
      "count": 9180,
      "type": "SCALAR"
    },
    {
      "bufferView": 2,
      "byteOffset": 164064,
      "componentType": 5126,
      "count": 43061,
      "max": [
        502.9953918457031,
        1027.20703125,
        557.7390747070313
      ],
      "min": [
        -502.8963623046875,
        -842.35009765625,
        -555.950439453125
      ],
      "type": "VEC3"
    },
    {
      "bufferView": 2,
      "byteOffset": 680796,
      "componentType": 5126,
      "count": 43061,
      "max": [
        0.9999914765357971,
        0.999967098236084,
        0.9999851584434509
      ],
      "min": [
        -0.9999914765357971,
        -0.9994422793388367,
        -0.9999851584434509
      ],
      "type": "VEC3"
    },
    {
      "bufferView": 1,
      "byteOffset": 109376,
      "componentType": 5126,
      "count": 43061,
      "max": [
        0.9856428503990173,
        1.0
      ],
      "min": [
        -3.017069616362278e-08,
        -4.726116387132606e-08
      ],
      "type": "VEC2"
    },
    {
      "bufferView": 1,
      "byteOffset": 453864,
      "componentType": 5126,
      "count": 43061,
      "max": [
        0.9856428503990173,
        1.0
      ],
      "min": [
        -3.017069616362278e-08,
        -4.726116387132606e-08
      ],
      "type": "VEC2"
    },
    {
      "bufferView": 0,
      "byteOffset": 36720,
      "componentType": 5125,
      "count": 94737,
      "type": "SCALAR"
    },
    {
      "bufferView": 2,
      "byteOffset": 1197528,
      "componentType": 5126,
      "count": 9146,
      "max": [
        513.1409301757813,
        654.4426879882813,
        559.882568359375
      ],
      "min": [
        -512.588134765625,
        483.4281005859375,
        -571.8471069335938
      ],
      "type": "VEC3"
    },
    {
      "bufferView": 2,
      "byteOffset": 1307280,
      "componentType": 5126,
      "count": 9146,
      "max": [
        0.9999265670776367,
        0.9998078346252441,
        0.9998307824134827
      ],
      "min": [
        -0.999879002571106,
        -0.9998429417610168,
        -0.9995326995849609
      ],
      "type": "VEC3"
    },
    {
      "bufferView": 1,
      "byteOffset": 798352,
      "componentType": 5126,
      "count": 9146,
      "max": [
        0.0,
        0.0
      ],
      "min": [
        0.0,
        0.0
      ],
      "type": "VEC2"
    },
    {
      "bufferView": 1,
      "byteOffset": 871520,
      "componentType": 5126,
      "count": 9146,
      "max": [
        0.9984192252159119,
        0.9983215928077698
      ],
      "min": [
        -6.622737913630772e-09,
        -4.2449247672493584e-08
      ],
      "type": "VEC2"
    },
    {
      "bufferView": 0,
      "byteOffset": 415668,
      "componentType": 5125,
      "count": 13890,
      "type": "SCALAR"
    },
    {
      "bufferView": 2,
      "byteOffset": 1417032,
      "componentType": 5126,
      "count": 38099,
      "max": [
        499.2038269042969,
        505.47784423828125,
        559.3436279296875
      ],
      "min": [
        -500.9363708496094,
        -429.23065185546875,
        -555.4647827148438
      ],
      "type": "VEC3"
    },
    {
      "bufferView": 2,
      "byteOffset": 1874220,
      "componentType": 5126,
      "count": 38099,
      "max": [
        0.9999963641166687,
        0.999991774559021,
        0.9999957084655762
      ],
      "min": [
        -0.9999963641166687,
        -0.9998608827590942,
        -0.9999956488609314
      ],
      "type": "VEC3"
    },
    {
      "bufferView": 1,
      "byteOffset": 944688,
      "componentType": 5126,
      "count": 38099,
      "max": [
        0.9856428503990173,
        1.0
      ],
      "min": [
        -3.017069616362278e-08,
        -4.726116387132606e-08
      ],
      "type": "VEC2"
    },
    {
      "bufferView": 1,
      "byteOffset": 1249480,
      "componentType": 5126,
      "count": 38099,
      "max": [
        0.9856428503990173,
        1.0
      ],
      "min": [
        -3.017069616362278e-08,
        -4.726116387132606e-08
      ],
      "type": "VEC2"
    },
    {
      "bufferView": 1,
      "byteOffset": 1554272,
      "componentType": 5126,
      "count": 38099,
      "max": [
        0.9856428503990173,
        1.0
      ],
      "min": [
        -3.017069616362278e-08,
        -4.726116387132606e-08
      ],
      "type": "VEC2"
    },
    {
      "bufferView": 0,
      "byteOffset": 471228,
      "componentType": 5125,
      "count": 78492,
      "type": "SCALAR"
    }
  ],
  "asset": {
    "extras": {
      "author": "AspectStudios (https://sketchfab.com/AspectStudio)",
      "license": "CC-BY-4.0 (http://creativecommons.org/licenses/by/4.0/)",
      "source": "https://sketchfab.com/3d-models/wicker-basket-draft-7c8f4b60e1874de682556013cd8641cb",
      "title": "Wicker Basket {draft}"
    },
    "generator": "Sketchfab-16.72.0",
    "version": "2.0"
  },
  "bufferViews": [
    {
      "buffer": 0,
      "byteLength": 785196,
      "name": "floatBufferViews",
      "target": 34963
    },
    {
      "buffer": 0,
      "byteLength": 1859064,
      "byteOffset": 785196,
      "byteStride": 8,
      "name": "floatBufferViews",
      "target": 34962
    },
    {
      "buffer": 0,
      "byteLength": 2331408,
      "byteOffset": 2644260,
      "byteStride": 12,
      "name": "floatBufferViews",
      "target": 34962
    }
  ],
  "buffers": [
    {
      "byteLength": 4975668,
      "uri": "scene.bin"
    }
  ],
  "extensionsUsed": [
    "KHR_texture_transform",
    "KHR_materials_specular"
  ],
  "images": [
    {
      "uri": "textures/Basket_Weave_Pattern_baseColor.jpeg"
    },
    {
      "uri": "textures/Weaving_Reed.002_baseColor.jpeg"
    }
  ],
  "materials": [
    {
      "doubleSided": true,
      "extensions": {
        "KHR_materials_specular": {
          "specularColorFactor": [
            1.0,
            1.0,
            1.0
          ],
          "specularFactor": 0.0
        }
      },
      "name": "Basket_Weave_Pattern",
      "pbrMetallicRoughness": {
        "baseColorTexture": {
          "extensions": {
            "KHR_texture_transform": {
              "scale": [
                1.9999999999999984,
                1.9999999999999984
              ]
            }
          },
          "index": 0
        },
        "metallicFactor": 0.0,
        "roughnessFactor": 0.5017127671246236
      }
    },
    {
      "doubleSided": true,
      "extensions": {
        "KHR_materials_specular": {
          "specularColorFactor": [
            1.0,
            1.0,
            1.0
          ],
          "specularFactor": 0.0
        }
      },
      "name": "Weaving_Reed.002",
      "pbrMetallicRoughness": {
        "baseColorTexture": {
          "index": 1
        },
        "metallicFactor": 0.0,
        "roughnessFactor": 0.6845704672623765
      }
    }
  ],
  "meshes": [
    {
      "name": "Basket_Basket Weave Pattern_0",
      "primitives": [
        {
          "attributes": {
            "NORMAL": 1,
            "POSITION": 0,
            "TEXCOORD_0": 2,
            "TEXCOORD_1": 3
          },
          "indices": 4,
          "material": 0,
          "mode": 4
        }
      ]
    },
    {
      "name": "Basket_Weaving Reed.002_0",
      "primitives": [
        {
          "attributes": {
            "NORMAL": 6,
            "POSITION": 5,
            "TEXCOORD_0": 7,
            "TEXCOORD_1": 8
          },
          "indices": 9,
          "material": 1,
          "mode": 4
        }
      ]
    },
    {
      "name": "Basket2_Basket Weave Pattern_0",
      "primitives": [
        {
          "attributes": {
            "NORMAL": 11,
            "POSITION": 10,
            "TEXCOORD_0": 12,
            "TEXCOORD_1": 13
          },
          "indices": 14,
          "material": 0,
          "mode": 4
        }
      ]
    },
    {
      "name": "Basket2_Weaving Reed.002_0",
      "primitives": [
        {
          "attributes": {
            "NORMAL": 16,
            "POSITION": 15,
            "TEXCOORD_0": 17,
            "TEXCOORD_1": 18,
            "TEXCOORD_2": 19
          },
          "indices": 20,
          "material": 1,
          "mode": 4
        }
      ]
    }
  ],
  "nodes": [
    {
      "children": [
        1
      ],
      "matrix": [
        1.0,
        0.0,
        0.0,
        0.0,
        0.0,
        2.220446049250313e-16,
        -1.0,
        0.0,
        0.0,
        1.0,
        2.220446049250313e-16,
        0.0,
        0.0,
        0.0,
        0.0,
        1.0
      ],
      "name": "Sketchfab_model"
    },
    {
      "children": [
        2
      ],
      "matrix": [
        0.009999999776482582,
        0.0,
        0.0,
        0.0,
        0.0,
        0.0,
        0.009999999776482582,
        0.0,
        0.0,
        -0.009999999776482582,
        0.0,
        0.0,
        0.0,
        0.0,
        0.0,
        1.0
      ],
      "name": "Basket.fbx"
    },
    {
      "children": [
        3,
        6
      ],
      "name": "RootNode"
    },
    {
      "children": [
        4,
        5
      ],
      "matrix": [
        -0.062370299582022885,
        7.638158774498585e-18,
        0.24014277622832675,
        0.0,
        3.587623358794675e-17,
        0.14886602759361267,
        4.582894805961484e-18,
        0.0,
        -0.24014277622832675,
        5.979372863179774e-17,
        -0.062370299582022885,
        0.0,
        -174.9519500732422,
        126.46442413330078,
        -0.03476142883300781,
        1.0
      ],
      "name": "Basket"
    },
    {
      "mesh": 0,
      "name": "Basket_Basket Weave Pattern_0"
    },
    {
      "mesh": 1,
      "name": "Basket_Weaving Reed.002_0"
    },
    {
      "children": [
        7,
        8
      ],
      "matrix": [
        0.05007418037489657,
        0.0,
        0.24300449317735223,
        0.0,
        0.0,
        0.14886602759361267,
        0.0,
        0.0,
        -0.24300449317735223,
        0.0,
        0.05007418037489657,
        0.0,
        185.9823760986328,
        65.82960510253906,
        0.0347137451171875,
        1.0
      ],
      "name": "Basket2"
    },
    {
      "mesh": 2,
      "name": "Basket2_Basket Weave Pattern_0"
    },
    {
      "mesh": 3,
      "name": "Basket2_Weaving Reed.002_0"
    }
  ],
  "samplers": [
    {
      "magFilter": 9729,
      "minFilter": 9987,
      "wrapS": 10497,
      "wrapT": 10497
    }
  ],
  "scene": 0,
  "scenes": [
    {
      "name": "Sketchfab_Scene",
      "nodes": [
        0
      ]
    }
  ],
  "textures": [
    {
      "sampler": 0,
      "source": 0
    },
    {
      "sampler": 0,
      "source": 1
    }
  ]
}
