{"asset":{"version":"2.0","generator":"babylon.js glTF exporter for 3ds max 2019 v1.3.33"},"scene":0,"scenes":[{"nodes":[0],"extensions":{}}],"nodes":[{"children":[1,2],"translation":[0.0,0.0,0.0],"rotation":[0.0,0.0,0.0,1.0],"scale":[0.01,0.01,0.01],"name":"root"},{"mesh":0,"translation":[0.0,0.0,0.0],"rotation":[0.0,0.0,0.0,1.0],"scale":[1.0,1.0,1.0],"name":"PORT001"},{"translation":[0.0,0.0,0.0],"rotation":[0.0,0.0,0.0,1.0],"scale":[1.0,1.0,1.0],"name":"Default light"}],"meshes":[{"primitives":[{"attributes":{"POSITION":1,"NORMAL":2,"TEXCOORD_0":3},"indices":0,"mode":4,"material":0}],"name":"PORT001"}],"accessors":[{"bufferView":0,"componentType":5123,"count":1308,"type":"SCALAR","name":"accessorIndices"},{"bufferView":1,"componentType":5126,"count":1308,"max":[54.2201538,250.21875,5.54064465],"min":[-54.21924,1.30271149,-7.061857],"type":"VEC3","name":"accessorPositions"},{"bufferView":1,"byteOffset":15696,"componentType":5126,"count":1308,"type":"VEC3","name":"accessorNormals"},{"bufferView":2,"componentType":5126,"count":1308,"type":"VEC2","name":"accessorUVs"}],"bufferViews":[{"buffer":0,"byteLength":2616,"name":"bufferViewScalar"},{"buffer":0,"byteOffset":2616,"byteLength":31392,"byteStride":12,"name":"bufferViewFloatVec3"},{"buffer":0,"byteOffset":34008,"byteLength":10464,"byteStride":8,"name":"bufferViewFloatVec2"}],"buffers":[{"uri":"PORT001.bin","byteLength":44472}],"materials":[{"pbrMetallicRoughness":{"baseColorFactor":[1.0,1.0,1.0,1.0],"baseColorTexture":{"index":0,"texCoord":0},"metallicFactor":0.0,"roughnessFactor":0.99},"emissiveFactor":[0.0,0.0,0.0],"alphaMode":"OPAQUE","name":"portes"}],"textures":[{"sampler":0,"source":0,"name":"portes.jpg"}],"images":[{"uri":"portes.jpg"}],"samplers":[{"magFilter":9729,"minFilter":9987,"wrapS":10497,"wrapT":10497}]}