{"asset":{"version":"2.0","generator":"babylon.js glTF exporter for 3ds max 2019 v1.3.33"},"scene":0,"scenes":[{"nodes":[0],"extensions":{}}],"nodes":[{"children":[1,2],"translation":[0.0,0.0,0.0],"rotation":[0.0,0.0,0.0,1.0],"scale":[0.01,0.01,0.01],"name":"root"},{"mesh":0,"translation":[0.0,0.0,0.0],"rotation":[0.0,0.0,0.0,1.0],"scale":[1.0,1.0,1.0],"name":"DECO002"},{"translation":[0.0,0.0,0.0],"rotation":[0.0,0.0,0.0,1.0],"scale":[1.0,1.0,1.0],"name":"Default light"}],"meshes":[{"primitives":[{"attributes":{"POSITION":1,"NORMAL":2,"TEXCOORD_0":3},"indices":0,"mode":4,"material":0}],"name":"DECO002"}],"accessors":[{"bufferView":0,"componentType":5123,"count":96,"type":"SCALAR","name":"accessorIndices"},{"bufferView":1,"componentType":5126,"count":96,"max":[44.2195129,61.37726,1.51345253],"min":[-44.2195129,-61.377243,-1.51345444],"type":"VEC3","name":"accessorPositions"},{"bufferView":1,"byteOffset":1152,"componentType":5126,"count":96,"type":"VEC3","name":"accessorNormals"},{"bufferView":2,"componentType":5126,"count":96,"type":"VEC2","name":"accessorUVs"}],"bufferViews":[{"buffer":0,"byteLength":192,"name":"bufferViewScalar"},{"buffer":0,"byteOffset":192,"byteLength":2304,"byteStride":12,"name":"bufferViewFloatVec3"},{"buffer":0,"byteOffset":2496,"byteLength":768,"byteStride":8,"name":"bufferViewFloatVec2"}],"buffers":[{"uri":"DECO002.bin","byteLength":3264}],"materials":[{"pbrMetallicRoughness":{"baseColorFactor":[1.0,1.0,1.0,1.0],"baseColorTexture":{"index":0,"texCoord":0},"metallicFactor":0.0,"roughnessFactor":0.99},"emissiveFactor":[0.0,0.0,0.0],"alphaMode":"OPAQUE","name":"ecran_tableau"}],"textures":[{"sampler":0,"source":0,"name":"ecran_tableau.jpg"}],"images":[{"uri":"ecran_tableau.jpg"}],"samplers":[{"magFilter":9729,"minFilter":9987,"wrapS":10497,"wrapT":10497}]}