{"asset":{"version":"2.0","generator":"babylon.js glTF exporter for 3ds max 2019 v1.3.33"},"scene":0,"scenes":[{"nodes":[0],"extensions":{}}],"nodes":[{"children":[1,2],"translation":[0.0,0.0,0.0],"rotation":[0.0,0.0,0.0,1.0],"scale":[0.01,0.01,0.01],"name":"root"},{"mesh":0,"translation":[0.0,0.0,0.0],"rotation":[0.0,0.0,0.0,1.0],"scale":[1.0,1.0,1.0],"name":"TECH003"},{"translation":[0.0,0.0,0.0],"rotation":[0.0,0.0,0.0,1.0],"scale":[1.0,1.0,1.0],"name":"Default light"}],"meshes":[{"primitives":[{"attributes":{"POSITION":1,"NORMAL":2,"TEXCOORD_0":3},"indices":0,"mode":4,"material":0}],"name":"TECH003"}],"accessors":[{"bufferView":0,"componentType":5123,"count":4218,"type":"SCALAR","name":"accessorIndices"},{"bufferView":1,"componentType":5126,"count":4218,"max":[24.19725,34.4169235,17.282917],"min":[-24.19725,1.12652779E-05,-27.04168],"type":"VEC3","name":"accessorPositions"},{"bufferView":1,"byteOffset":50616,"componentType":5126,"count":4218,"type":"VEC3","name":"accessorNormals"},{"bufferView":2,"componentType":5126,"count":4218,"type":"VEC2","name":"accessorUVs"}],"bufferViews":[{"buffer":0,"byteLength":8436,"name":"bufferViewScalar"},{"buffer":0,"byteOffset":8436,"byteLength":101232,"byteStride":12,"name":"bufferViewFloatVec3"},{"buffer":0,"byteOffset":109668,"byteLength":33744,"byteStride":8,"name":"bufferViewFloatVec2"}],"buffers":[{"uri":"TECH003.bin","byteLength":143412}],"materials":[{"pbrMetallicRoughness":{"baseColorFactor":[1.0,1.0,1.0,1.0],"baseColorTexture":{"index":0,"texCoord":0},"metallicFactor":0.0,"roughnessFactor":0.99},"emissiveFactor":[0.0,0.0,0.0],"alphaMode":"OPAQUE","name":"techno"}],"textures":[{"sampler":0,"source":0,"name":"techno.jpg"}],"images":[{"uri":"techno.jpg"}],"samplers":[{"magFilter":9729,"minFilter":9987,"wrapS":10497,"wrapT":10497}]}