{"asset":{"version":"2.0","generator":"babylon.js glTF exporter for 3ds max 2019 v1.3.33"},"scene":0,"scenes":[{"nodes":[0],"extensions":{}}],"nodes":[{"children":[1,2],"translation":[0.0,0.0,0.0],"rotation":[0.0,0.0,0.0,1.0],"scale":[0.01,0.01,0.01],"name":"root"},{"mesh":0,"translation":[0.0,0.0,0.0],"rotation":[0.0,0.0,0.0,1.0],"scale":[1.0,1.0,1.0],"name":"PLAN003"},{"translation":[0.0,0.0,0.0],"rotation":[0.0,0.0,0.0,1.0],"scale":[1.0,1.0,1.0],"name":"Default light"}],"meshes":[{"primitives":[{"attributes":{"POSITION":1,"NORMAL":2,"TEXCOORD_0":3},"indices":0,"mode":4,"material":0}],"name":"PLAN003"}],"accessors":[{"bufferView":0,"componentType":5123,"count":3822,"type":"SCALAR","name":"accessorIndices"},{"bufferView":1,"componentType":5126,"count":3822,"max":[61.2044067,227.5646,52.41804],"min":[-46.3875732,0.0,-74.8726654],"type":"VEC3","name":"accessorPositions"},{"bufferView":1,"byteOffset":45864,"componentType":5126,"count":3822,"type":"VEC3","name":"accessorNormals"},{"bufferView":2,"componentType":5126,"count":3822,"type":"VEC2","name":"accessorUVs"}],"bufferViews":[{"buffer":0,"byteLength":7644,"name":"bufferViewScalar"},{"buffer":0,"byteOffset":7644,"byteLength":91728,"byteStride":12,"name":"bufferViewFloatVec3"},{"buffer":0,"byteOffset":99372,"byteLength":30576,"byteStride":8,"name":"bufferViewFloatVec2"}],"buffers":[{"uri":"PLAN003.bin","byteLength":129948}],"materials":[{"pbrMetallicRoughness":{"baseColorFactor":[1.0,1.0,1.0,1.0],"baseColorTexture":{"index":0,"texCoord":0},"metallicFactor":0.0,"roughnessFactor":0.99},"emissiveFactor":[0.0,0.0,0.0],"alphaMode":"OPAQUE","name":"plantes"}],"textures":[{"sampler":0,"source":0,"name":"plantes.jpg"}],"images":[{"uri":"plantes.jpg"}],"samplers":[{"magFilter":9729,"minFilter":9987,"wrapS":10497,"wrapT":10497}]}