{
  "accessors": [
    {
      "bufferView": 2,
      "componentType": 5126,
      "count": 150,
      "max": [
        5.236549377441406,
        4.802032470703125,
        191.135009765625
      ],
      "min": [
        -4.854301452636719,
        -4.976715087890625,
        0.0
      ],
      "type": "VEC3"
    },
    {
      "bufferView": 2,
      "byteOffset": 1800,
      "componentType": 5126,
      "count": 150,
      "max": [
        0.9999749660491943,
        0.9921342134475708,
        0.9999517798423767
      ],
      "min": [
        -0.9999624490737915,
        -0.9913313388824463,
        -1.0
      ],
      "type": "VEC3"
    },
    {
      "bufferView": 1,
      "componentType": 5126,
      "count": 150,
      "max": [
        0.9722222089767456,
        1.0
      ],
      "min": [
        -0.027777791023254395,
        0.0
      ],
      "type": "VEC2"
    },
    {
      "bufferView": 0,
      "componentType": 5125,
      "count": 636,
      "type": "SCALAR"
    },
    {
      "bufferView": 2,
      "byteOffset": 3600,
      "componentType": 5126,
      "count": 150,
      "max": [
        5.2365264892578125,
        5.1704864501953125,
        190.74758911132813
      ],
      "min": [
        -4.852081298828125,
        -5.1585540771484375,
        -4.76837158203125e-07
      ],
      "type": "VEC3"
    },
    {
      "bufferView": 2,
      "byteOffset": 5400,
      "componentType": 5126,
      "count": 150,
      "max": [
        0.9999603033065796,
        0.9883032441139221,
        0.9999573826789856
      ],
      "min": [
        -0.9999614357948303,
        -0.9884492754936218,
        -1.0
      ],
      "type": "VEC3"
    },
    {
      "bufferView": 1,
      "byteOffset": 1200,
      "componentType": 5126,
      "count": 150,
      "max": [
        0.9722222089767456,
        1.0
      ],
      "min": [
        -0.027777791023254395,
        0.0
      ],
      "type": "VEC2"
    },
    {
      "bufferView": 0,
      "byteOffset": 2544,
      "componentType": 5125,
      "count": 636,
      "type": "SCALAR"
    },
    {
      "bufferView": 2,
      "byteOffset": 7200,
      "componentType": 5126,
      "count": 150,
      "max": [
        5.236541748046875,
        5.853363037109375,
        190.74879455566406
      ],
      "min": [
        -4.852081298828125,
        -5.0593109130859375,
        0.0
      ],
      "type": "VEC3"
    },
    {
      "bufferView": 2,
      "byteOffset": 9000,
      "componentType": 5126,
      "count": 150,
      "max": [
        0.9999750256538391,
        0.9884870052337646,
        0.999933123588562
      ],
      "min": [
        -0.9999628663063049,
        -0.9884968996047974,
        -1.0
      ],
      "type": "VEC3"
    },
    {
      "bufferView": 1,
      "byteOffset": 2400,
      "componentType": 5126,
      "count": 150,
      "max": [
        0.9722222089767456,
        1.0
      ],
      "min": [
        -0.027777791023254395,
        0.0
      ],
      "type": "VEC2"
    },
    {
      "bufferView": 0,
      "byteOffset": 5088,
      "componentType": 5125,
      "count": 636,
      "type": "SCALAR"
    },
    {
      "bufferView": 2,
      "byteOffset": 10800,
      "componentType": 5126,
      "count": 150,
      "max": [
        2.9663925170898438,
        2.9306068420410156,
        66.52116394042969
      ],
      "min": [
        -4.157752990722656,
        -3.9270191192626953,
        -4.76837158203125e-07
      ],
      "type": "VEC3"
    },
    {
      "bufferView": 2,
      "byteOffset": 12600,
      "componentType": 5126,
      "count": 150,
      "max": [
        0.9997797608375549,
        0.9911030530929565,
        1.0
      ],
      "min": [
        -0.9998244643211365,
        -0.9918147921562195,
        -1.0
      ],
      "type": "VEC3"
    },
    {
      "bufferView": 1,
      "byteOffset": 3600,
      "componentType": 5126,
      "count": 150,
      "max": [
        0.9722222089767456,
        1.0
      ],
      "min": [
        -0.027777791023254395,
        0.0
      ],
      "type": "VEC2"
    },
    {
      "bufferView": 0,
      "byteOffset": 7632,
      "componentType": 5125,
      "count": 636,
      "type": "SCALAR"
    },
    {
      "bufferView": 2,
      "byteOffset": 14400,
      "componentType": 5126,
      "count": 150,
      "max": [
        2.972412109375,
        4.124111175537109,
        66.52116394042969
      ],
      "min": [
        -3.99176025390625,
        -4.126630783081055,
        -4.76837158203125e-07
      ],
      "type": "VEC3"
    },
    {
      "bufferView": 2,
      "byteOffset": 16200,
      "componentType": 5126,
      "count": 150,
      "max": [
        0.9999292492866516,
        0.9942598938941956,
        1.0
      ],
      "min": [
        -0.9998628497123718,
        -0.9941598176956177,
        -1.0
      ],
      "type": "VEC3"
    },
    {
      "bufferView": 1,
      "byteOffset": 4800,
      "componentType": 5126,
      "count": 150,
      "max": [
        0.9722222089767456,
        1.0
      ],
      "min": [
        -0.027777791023254395,
        0.0
      ],
      "type": "VEC2"
    },
    {
      "bufferView": 0,
      "byteOffset": 10176,
      "componentType": 5125,
      "count": 636,
      "type": "SCALAR"
    },
    {
      "bufferView": 2,
      "byteOffset": 18000,
      "componentType": 5126,
      "count": 150,
      "max": [
        2.97198486328125,
        3.3846359252929688,
        66.52116394042969
      ],
      "min": [
        -3.997802734375,
        -4.041717529296875,
        0.0
      ],
      "type": "VEC3"
    },
    {
      "bufferView": 2,
      "byteOffset": 19800,
      "componentType": 5126,
      "count": 150,
      "max": [
        0.9999498128890991,
        0.9898401498794556,
        1.0
      ],
      "min": [
        -0.9999163150787354,
        -0.989308774471283,
        -1.0
      ],
      "type": "VEC3"
    },
    {
      "bufferView": 1,
      "byteOffset": 6000,
      "componentType": 5126,
      "count": 150,
      "max": [
        0.9722222089767456,
        1.0
      ],
      "min": [
        -0.027777791023254395,
        0.0
      ],
      "type": "VEC2"
    },
    {
      "bufferView": 0,
      "byteOffset": 12720,
      "componentType": 5125,
      "count": 636,
      "type": "SCALAR"
    },
    {
      "bufferView": 2,
      "byteOffset": 21600,
      "componentType": 5126,
      "count": 150,
      "max": [
        3.0568084716796875,
        3.3867645263671875,
        66.4814682006836
      ],
      "min": [
        -3.9725217819213867,
        -3.8429336547851563,
        -4.76837158203125e-07
      ],
      "type": "VEC3"
    },
    {
      "bufferView": 2,
      "byteOffset": 23400,
      "componentType": 5126,
      "count": 150,
      "max": [
        0.9999678730964661,
        0.9921693801879883,
        0.9999954104423523
      ],
      "min": [
        -0.9999894499778748,
        -0.9918707609176636,
        -1.0
      ],
      "type": "VEC3"
    },
    {
      "bufferView": 1,
      "byteOffset": 7200,
      "componentType": 5126,
      "count": 150,
      "max": [
        0.9722222089767456,
        1.0
      ],
      "min": [
        -0.027777791023254395,
        0.0
      ],
      "type": "VEC2"
    },
    {
      "bufferView": 0,
      "byteOffset": 15264,
      "componentType": 5125,
      "count": 636,
      "type": "SCALAR"
    },
    {
      "bufferView": 2,
      "byteOffset": 25200,
      "componentType": 5126,
      "count": 150,
      "max": [
        3.5602855682373047,
        3.3690032958984375,
        66.47856140136719
      ],
      "min": [
        -3.1063060760498047,
        -3.8360443115234375,
        0.0
      ],
      "type": "VEC3"
    },
    {
      "bufferView": 2,
      "byteOffset": 27000,
      "componentType": 5126,
      "count": 150,
      "max": [
        0.99990314245224,
        0.9924712181091309,
        0.9999954104423523
      ],
      "min": [
        -0.9999083280563354,
        -0.9918833374977112,
        -1.0
      ],
      "type": "VEC3"
    },
    {
      "bufferView": 1,
      "byteOffset": 8400,
      "componentType": 5126,
      "count": 150,
      "max": [
        0.9722222089767456,
        1.0
      ],
      "min": [
        -0.027777791023254395,
        0.0
      ],
      "type": "VEC2"
    },
    {
      "bufferView": 0,
      "byteOffset": 17808,
      "componentType": 5125,
      "count": 636,
      "type": "SCALAR"
    },
    {
      "bufferView": 2,
      "byteOffset": 28800,
      "componentType": 5126,
      "count": 150,
      "max": [
        4.948211669921875,
        2.927947998046875,
        66.52117156982422
      ],
      "min": [
        -2.7145233154296875,
        -3.952545166015625,
        -4.76837158203125e-07
      ],
      "type": "VEC3"
    },
    {
      "bufferView": 2,
      "byteOffset": 30600,
      "componentType": 5126,
      "count": 150,
      "max": [
        0.9997169375419617,
        0.9906811118125916,
        1.0
      ],
      "min": [
        -0.9997087717056274,
        -0.9925484657287598,
        -1.0
      ],
      "type": "VEC3"
    },
    {
      "bufferView": 1,
      "byteOffset": 9600,
      "componentType": 5126,
      "count": 150,
      "max": [
        0.9722222089767456,
        1.0
      ],
      "min": [
        -0.027777791023254395,
        0.0
      ],
      "type": "VEC2"
    },
    {
      "bufferView": 0,
      "byteOffset": 20352,
      "componentType": 5125,
      "count": 636,
      "type": "SCALAR"
    },
    {
      "bufferView": 2,
      "byteOffset": 32400,
      "componentType": 5126,
      "count": 150,
      "max": [
        4.9513092041015625,
        4.110260009765625,
        66.52116394042969
      ],
      "min": [
        -2.74993896484375,
        -4.135345458984375,
        -4.76837158203125e-07
      ],
      "type": "VEC3"
    },
    {
      "bufferView": 2,
      "byteOffset": 34200,
      "componentType": 5126,
      "count": 150,
      "max": [
        0.9997189044952393,
        0.9943857192993164,
        1.0
      ],
      "min": [
        -0.9997038245201111,
        -0.9938676357269287,
        -1.0
      ],
      "type": "VEC3"
    },
    {
      "bufferView": 1,
      "byteOffset": 10800,
      "componentType": 5126,
      "count": 150,
      "max": [
        0.9722222089767456,
        1.0
      ],
      "min": [
        -0.027777791023254395,
        0.0
      ],
      "type": "VEC2"
    },
    {
      "bufferView": 0,
      "byteOffset": 22896,
      "componentType": 5125,
      "count": 636,
      "type": "SCALAR"
    },
    {
      "bufferView": 2,
      "byteOffset": 36000,
      "componentType": 5126,
      "count": 150,
      "max": [
        4.951995849609375,
        3.3857421875,
        66.52116394042969
      ],
      "min": [
        -2.745361328125,
        -4.01123046875,
        -4.76837158203125e-07
      ],
      "type": "VEC3"
    },
    {
      "bufferView": 2,
      "byteOffset": 37800,
      "componentType": 5126,
      "count": 150,
      "max": [
        0.9997082352638245,
        0.9902108311653137,
        1.0
      ],
      "min": [
        -0.9997074604034424,
        -0.9889737963676453,
        -1.0
      ],
      "type": "VEC3"
    },
    {
      "bufferView": 1,
      "byteOffset": 12000,
      "componentType": 5126,
      "count": 150,
      "max": [
        0.9722222089767456,
        1.0
      ],
      "min": [
        -0.027777791023254395,
        0.0
      ],
      "type": "VEC2"
    },
    {
      "bufferView": 0,
      "byteOffset": 25440,
      "componentType": 5125,
      "count": 636,
      "type": "SCALAR"
    },
    {
      "bufferView": 2,
      "byteOffset": 39600,
      "componentType": 5126,
      "count": 150,
      "max": [
        4.94818115234375,
        4.79681396484375,
        66.52116394042969
      ],
      "min": [
        -2.714508056640625,
        -2.623931884765625,
        0.0
      ],
      "type": "VEC3"
    },
    {
      "bufferView": 2,
      "byteOffset": 41400,
      "componentType": 5126,
      "count": 150,
      "max": [
        0.9997190237045288,
        0.9877763986587524,
        1.0
      ],
      "min": [
        -0.9997093081474304,
        -0.9886132478713989,
        -1.0
      ],
      "type": "VEC3"
    },
    {
      "bufferView": 1,
      "byteOffset": 13200,
      "componentType": 5126,
      "count": 150,
      "max": [
        0.9722222089767456,
        1.0
      ],
      "min": [
        -0.027777791023254395,
        0.0
      ],
      "type": "VEC2"
    },
    {
      "bufferView": 0,
      "byteOffset": 27984,
      "componentType": 5125,
      "count": 636,
      "type": "SCALAR"
    },
    {
      "bufferView": 2,
      "byteOffset": 43200,
      "componentType": 5126,
      "count": 150,
      "max": [
        3.593963623046875,
        3.97247314453125,
        66.47730255126953
      ],
      "min": [
        -3.029144287109375,
        -4.3899993896484375,
        0.0
      ],
      "type": "VEC3"
    },
    {
      "bufferView": 2,
      "byteOffset": 45000,
      "componentType": 5126,
      "count": 150,
      "max": [
        0.9998577237129211,
        0.9953879117965698,
        0.999995231628418
      ],
      "min": [
        -0.9998706579208374,
        -0.9948252439498901,
        -1.0
      ],
      "type": "VEC3"
    },
    {
      "bufferView": 1,
      "byteOffset": 14400,
      "componentType": 5126,
      "count": 150,
      "max": [
        0.9722222089767456,
        1.0
      ],
      "min": [
        -0.027777791023254395,
        0.0
      ],
      "type": "VEC2"
    },
    {
      "bufferView": 0,
      "byteOffset": 30528,
      "componentType": 5125,
      "count": 636,
      "type": "SCALAR"
    },
    {
      "bufferView": 2,
      "byteOffset": 46800,
      "componentType": 5126,
      "count": 150,
      "max": [
        3.058074951171875,
        4.0047454833984375,
        66.47137451171875
      ],
      "min": [
        -3.93902587890625,
        -4.3820648193359375,
        -4.76837158203125e-07
      ],
      "type": "VEC3"
    },
    {
      "bufferView": 2,
      "byteOffset": 48600,
      "componentType": 5126,
      "count": 150,
      "max": [
        0.9997879266738892,
        0.9939814209938049,
        0.9999949932098389
      ],
      "min": [
        -0.9998781085014343,
        -0.9949250221252441,
        -1.0
      ],
      "type": "VEC3"
    },
    {
      "bufferView": 1,
      "byteOffset": 15600,
      "componentType": 5126,
      "count": 150,
      "max": [
        0.9722222089767456,
        1.0
      ],
      "min": [
        -0.027777791023254395,
        0.0
      ],
      "type": "VEC2"
    },
    {
      "bufferView": 0,
      "byteOffset": 33072,
      "componentType": 5125,
      "count": 636,
      "type": "SCALAR"
    },
    {
      "bufferView": 2,
      "byteOffset": 50400,
      "componentType": 5126,
      "count": 150,
      "max": [
        0.5860633254051208,
        1.8384552001953125,
        0.08511313050985336
      ],
      "min": [
        -3.3074283599853516,
        -3.8791351318359375,
        -134.63088989257813
      ],
      "type": "VEC3"
    },
    {
      "bufferView": 2,
      "byteOffset": 52200,
      "componentType": 5126,
      "count": 150,
      "max": [
        0.9999962449073792,
        0.9895475506782532,
        0.9999661445617676
      ],
      "min": [
        -1.0,
        -0.9890235066413879,
        -0.9999716877937317
      ],
      "type": "VEC3"
    },
    {
      "bufferView": 1,
      "byteOffset": 16800,
      "componentType": 5126,
      "count": 150,
      "max": [
        0.9722222089767456,
        1.951200008392334
      ],
      "min": [
        -0.027777791023254395,
        0.0
      ],
      "type": "VEC2"
    },
    {
      "bufferView": 0,
      "byteOffset": 35616,
      "componentType": 5125,
      "count": 636,
      "type": "SCALAR"
    },
    {
      "bufferView": 2,
      "byteOffset": 54000,
      "componentType": 5126,
      "count": 150,
      "max": [
        0.5912129878997803,
        2.48089599609375,
        0.08506735414266586
      ],
      "min": [
        -3.302971363067627,
        -2.77154541015625,
        -121.08250427246094
      ],
      "type": "VEC3"
    },
    {
      "bufferView": 2,
      "byteOffset": 55800,
      "componentType": 5126,
      "count": 150,
      "max": [
        0.9999849200248718,
        0.9923371076583862,
        0.9999692440032959
      ],
      "min": [
        -0.9999930262565613,
        -0.992049515247345,
        -0.9999678730964661
      ],
      "type": "VEC3"
    },
    {
      "bufferView": 1,
      "byteOffset": 18000,
      "componentType": 5126,
      "count": 150,
      "max": [
        0.9722222089767456,
        1.951200008392334
      ],
      "min": [
        -0.027777791023254395,
        0.0
      ],
      "type": "VEC2"
    },
    {
      "bufferView": 0,
      "byteOffset": 38160,
      "componentType": 5125,
      "count": 636,
      "type": "SCALAR"
    },
    {
      "bufferView": 2,
      "byteOffset": 57600,
      "componentType": 5126,
      "count": 496,
      "max": [
        1.6038055419921875,
        91.83319091796875,
        73.56440734863281
      ],
      "min": [
        -146.005615234375,
        -16.781673431396484,
        -12.588630676269531
      ],
      "type": "VEC3"
    },
    {
      "bufferView": 2,
      "byteOffset": 63552,
      "componentType": 5126,
      "count": 496,
      "max": [
        0.8130724430084229,
        0.8707124590873718,
        0.9292346835136414
      ],
      "min": [
        -0.7966044545173645,
        -0.8698448538780212,
        -0.9287585616111755
      ],
      "type": "VEC3"
    },
    {
      "bufferView": 1,
      "byteOffset": 19200,
      "componentType": 5126,
      "count": 496,
      "max": [
        0.9722222089767456,
        2.7100000381469727
      ],
      "min": [
        -0.027777791023254395,
        0.0
      ],
      "type": "VEC2"
    },
    {
      "bufferView": 0,
      "byteOffset": 40704,
      "componentType": 5125,
      "count": 2592,
      "type": "SCALAR"
    },
    {
      "bufferView": 2,
      "byteOffset": 69504,
      "componentType": 5126,
      "count": 150,
      "max": [
        3.70684814453125,
        2.74664306640625,
        66.52680969238281
      ],
      "min": [
        -3.12890625,
        -4.7877197265625,
        0.0
      ],
      "type": "VEC3"
    },
    {
      "bufferView": 2,
      "byteOffset": 71304,
      "componentType": 5126,
      "count": 150,
      "max": [
        0.9998767375946045,
        0.9917948246002197,
        1.0
      ],
      "min": [
        -0.9999455213546753,
        -0.9896865487098694,
        -1.0
      ],
      "type": "VEC3"
    },
    {
      "bufferView": 1,
      "byteOffset": 23168,
      "componentType": 5126,
      "count": 150,
      "max": [
        0.9722222089767456,
        1.0
      ],
      "min": [
        -0.027777791023254395,
        0.0
      ],
      "type": "VEC2"
    },
    {
      "bufferView": 0,
      "byteOffset": 51072,
      "componentType": 5125,
      "count": 636,
      "type": "SCALAR"
    },
    {
      "bufferView": 2,
      "byteOffset": 73104,
      "componentType": 5126,
      "count": 150,
      "max": [
        3.7691116333007813,
        4.2955474853515625,
        66.52456665039063
      ],
      "min": [
        -3.0387611389160156,
        -3.209686279296875,
        0.0
      ],
      "type": "VEC3"
    },
    {
      "bufferView": 2,
      "byteOffset": 74904,
      "componentType": 5126,
      "count": 150,
      "max": [
        0.9999493360519409,
        0.9907196164131165,
        1.0
      ],
      "min": [
        -0.9999806880950928,
        -0.9910112023353577,
        -1.0
      ],
      "type": "VEC3"
    },
    {
      "bufferView": 1,
      "byteOffset": 24368,
      "componentType": 5126,
      "count": 150,
      "max": [
        0.9722222089767456,
        1.0
      ],
      "min": [
        -0.027777791023254395,
        0.0
      ],
      "type": "VEC2"
    },
    {
      "bufferView": 0,
      "byteOffset": 53616,
      "componentType": 5125,
      "count": 636,
      "type": "SCALAR"
    },
    {
      "bufferView": 2,
      "byteOffset": 76704,
      "componentType": 5126,
      "count": 150,
      "max": [
        4.9293060302734375,
        4.2859039306640625,
        66.52667236328125
      ],
      "min": [
        -3.30322265625,
        -3.2652587890625,
        0.0
      ],
      "type": "VEC3"
    },
    {
      "bufferView": 2,
      "byteOffset": 78504,
      "componentType": 5126,
      "count": 150,
      "max": [
        0.9995096325874329,
        0.9929397106170654,
        1.0
      ],
      "min": [
        -0.9995231032371521,
        -0.9908755421638489,
        -1.0
      ],
      "type": "VEC3"
    },
    {
      "bufferView": 1,
      "byteOffset": 25568,
      "componentType": 5126,
      "count": 150,
      "max": [
        0.9722222089767456,
        1.0
      ],
      "min": [
        -0.027777791023254395,
        0.0
      ],
      "type": "VEC2"
    },
    {
      "bufferView": 0,
      "byteOffset": 56160,
      "componentType": 5125,
      "count": 636,
      "type": "SCALAR"
    },
    {
      "bufferView": 2,
      "byteOffset": 80304,
      "componentType": 5126,
      "count": 302,
      "max": [
        19.456031799316406,
        5.2540435791015625,
        0.8672406077384949
      ],
      "min": [
        14.006793022155762,
        -2.9445037841796875,
        -280.4494323730469
      ],
      "type": "VEC3"
    },
    {
      "bufferView": 2,
      "byteOffset": 83928,
      "componentType": 5126,
      "count": 302,
      "max": [
        0.9992446899414063,
        0.9924530386924744,
        0.9999951720237732
      ],
      "min": [
        -0.998837411403656,
        -0.9932988286018372,
        -0.9999958276748657
      ],
      "type": "VEC3"
    },
    {
      "bufferView": 1,
      "byteOffset": 26768,
      "componentType": 5126,
      "count": 302,
      "max": [
        0.9722222089767456,
        1.0
      ],
      "min": [
        -0.027777791023254395,
        0.0
      ],
      "type": "VEC2"
    },
    {
      "bufferView": 0,
      "byteOffset": 58704,
      "componentType": 5125,
      "count": 1500,
      "type": "SCALAR"
    },
    {
      "bufferView": 2,
      "byteOffset": 87552,
      "componentType": 5126,
      "count": 496,
      "max": [
        4.151928424835205,
        91.83318328857422,
        73.56441497802734
      ],
      "min": [
        -147.27578735351563,
        -16.679790496826172,
        -12.487159729003906
      ],
      "type": "VEC3"
    },
    {
      "bufferView": 2,
      "byteOffset": 93504,
      "componentType": 5126,
      "count": 496,
      "max": [
        0.8016225695610046,
        0.875654399394989,
        0.927819550037384
      ],
      "min": [
        -0.7613980770111084,
        -0.8753856420516968,
        -0.9283941388130188
      ],
      "type": "VEC3"
    },
    {
      "bufferView": 1,
      "byteOffset": 29184,
      "componentType": 5126,
      "count": 496,
      "max": [
        0.9722222089767456,
        2.7100000381469727
      ],
      "min": [
        -0.027777791023254395,
        0.0
      ],
      "type": "VEC2"
    },
    {
      "bufferView": 0,
      "byteOffset": 64704,
      "componentType": 5125,
      "count": 2592,
      "type": "SCALAR"
    },
    {
      "bufferView": 2,
      "byteOffset": 99456,
      "componentType": 5126,
      "count": 496,
      "max": [
        0.9080924987792969,
        91.55059051513672,
        72.2151870727539
      ],
      "min": [
        -146.52490234375,
        -16.884675979614258,
        -12.502666473388672
      ],
      "type": "VEC3"
    },
    {
      "bufferView": 2,
      "byteOffset": 105408,
      "componentType": 5126,
      "count": 496,
      "max": [
        0.8028033375740051,
        0.8758900165557861,
        0.9332499504089355
      ],
      "min": [
        -0.7872906923294067,
        -0.8747847676277161,
        -0.9331705570220947
      ],
      "type": "VEC3"
    },
    {
      "bufferView": 1,
      "byteOffset": 33152,
      "componentType": 5126,
      "count": 496,
      "max": [
        0.9722222089767456,
        2.7100000381469727
      ],
      "min": [
        -0.027777791023254395,
        0.0
      ],
      "type": "VEC2"
    },
    {
      "bufferView": 0,
      "byteOffset": 75072,
      "componentType": 5125,
      "count": 2592,
      "type": "SCALAR"
    },
    {
      "bufferView": 2,
      "byteOffset": 111360,
      "componentType": 5126,
      "count": 496,
      "max": [
        1.5497150421142578,
        16.437992095947266,
        76.349853515625
      ],
      "min": [
        -143.882080078125,
        -92.94630432128906,
        -12.794206619262695
      ],
      "type": "VEC3"
    },
    {
      "bufferView": 2,
      "byteOffset": 117312,
      "componentType": 5126,
      "count": 496,
      "max": [
        0.7641517519950867,
        0.8758381009101868,
        0.9237186908721924
      ],
      "min": [
        -0.7597399353981018,
        -0.8759417533874512,
        -0.924107551574707
      ],
      "type": "VEC3"
    },
    {
      "bufferView": 1,
      "byteOffset": 37120,
      "componentType": 5126,
      "count": 496,
      "max": [
        0.9722222089767456,
        2.0595998764038086
      ],
      "min": [
        -0.027777791023254395,
        0.0
      ],
      "type": "VEC2"
    },
    {
      "bufferView": 0,
      "byteOffset": 85440,
      "componentType": 5125,
      "count": 2592,
      "type": "SCALAR"
    },
    {
      "bufferView": 2,
      "byteOffset": 123264,
      "componentType": 5126,
      "count": 496,
      "max": [
        -1.0054206848144531,
        16.416015625,
        74.05596923828125
      ],
      "min": [
        -144.2420196533203,
        -92.36929321289063,
        -12.466958999633789
      ],
      "type": "VEC3"
    },
    {
      "bufferView": 2,
      "byteOffset": 129216,
      "componentType": 5126,
      "count": 496,
      "max": [
        0.7771189212799072,
        0.8733847141265869,
        0.9303906559944153
      ],
      "min": [
        -0.8047932386398315,
        -0.8742483258247375,
        -0.9294244050979614
      ],
      "type": "VEC3"
    },
    {
      "bufferView": 1,
      "byteOffset": 41088,
      "componentType": 5126,
      "count": 496,
      "max": [
        0.9722222089767456,
        2.0595998764038086
      ],
      "min": [
        -0.027777791023254395,
        0.0
      ],
      "type": "VEC2"
    },
    {
      "bufferView": 0,
      "byteOffset": 95808,
      "componentType": 5125,
      "count": 2592,
      "type": "SCALAR"
    },
    {
      "bufferView": 2,
      "byteOffset": 135168,
      "componentType": 5126,
      "count": 496,
      "max": [
        2.195504665374756,
        16.62311553955078,
        74.32636260986328
      ],
      "min": [
        -145.6083221435547,
        -92.44116973876953,
        -12.664552688598633
      ],
      "type": "VEC3"
    },
    {
      "bufferView": 2,
      "byteOffset": 141120,
      "componentType": 5126,
      "count": 496,
      "max": [
        0.7906143665313721,
        0.8756215572357178,
        0.9274908304214478
      ],
      "min": [
        -0.780256450176239,
        -0.8748243451118469,
        -0.9271886944770813
      ],
      "type": "VEC3"
    },
    {
      "bufferView": 1,
      "byteOffset": 45056,
      "componentType": 5126,
      "count": 496,
      "max": [
        0.9722222089767456,
        2.0595998764038086
      ],
      "min": [
        -0.027777791023254395,
        0.0
      ],
      "type": "VEC2"
    },
    {
      "bufferView": 0,
      "byteOffset": 106176,
      "componentType": 5125,
      "count": 2592,
      "type": "SCALAR"
    },
    {
      "bufferView": 2,
      "byteOffset": 147072,
      "componentType": 5126,
      "count": 496,
      "max": [
        1.0036301612854004,
        16.367584228515625,
        75.40411376953125
      ],
      "min": [
        -142.36041259765625,
        -91.53462982177734,
        -12.807894706726074
      ],
      "type": "VEC3"
    },
    {
      "bufferView": 2,
      "byteOffset": 153024,
      "componentType": 5126,
      "count": 496,
      "max": [
        0.7607586979866028,
        0.8755163550376892,
        0.9275547862052917
      ],
      "min": [
        -0.7837806344032288,
        -0.8763975501060486,
        -0.927208423614502
      ],
      "type": "VEC3"
    },
    {
      "bufferView": 1,
      "byteOffset": 49024,
      "componentType": 5126,
      "count": 496,
      "max": [
        0.9722222089767456,
        2.0595996379852295
      ],
      "min": [
        -0.027777791023254395,
        0.0
      ],
      "type": "VEC2"
    },
    {
      "bufferView": 0,
      "byteOffset": 116544,
      "componentType": 5125,
      "count": 2592,
      "type": "SCALAR"
    },
    {
      "bufferView": 2,
      "byteOffset": 158976,
      "componentType": 5126,
      "count": 150,
      "max": [
        4.9514617919921875,
        4.1632080078125,
        66.52117156982422
      ],
      "min": [
        -2.7490386962890625,
        -2.902435302734375,
        0.0
      ],
      "type": "VEC3"
    },
    {
      "bufferView": 2,
      "byteOffset": 160776,
      "componentType": 5126,
      "count": 150,
      "max": [
        0.9997153282165527,
        0.989715576171875,
        1.0
      ],
      "min": [
        -0.9997020959854126,
        -0.9906850457191467,
        -1.0
      ],
      "type": "VEC3"
    },
    {
      "bufferView": 1,
      "byteOffset": 52992,
      "componentType": 5126,
      "count": 150,
      "max": [
        0.9722222089767456,
        1.0
      ],
      "min": [
        -0.027777791023254395,
        0.0
      ],
      "type": "VEC2"
    },
    {
      "bufferView": 0,
      "byteOffset": 126912,
      "componentType": 5125,
      "count": 636,
      "type": "SCALAR"
    },
    {
      "bufferView": 2,
      "byteOffset": 162576,
      "componentType": 5126,
      "count": 496,
      "max": [
        1.9279475212097168,
        16.606342315673828,
        74.32637023925781
      ],
      "min": [
        -145.3496856689453,
        -92.441162109375,
        -12.652422904968262
      ],
      "type": "VEC3"
    },
    {
      "bufferView": 2,
      "byteOffset": 168528,
      "componentType": 5126,
      "count": 496,
      "max": [
        0.7822869420051575,
        0.8796845078468323,
        0.9282432198524475
      ],
      "min": [
        -0.7834458351135254,
        -0.8797438144683838,
        -0.9277889132499695
      ],
      "type": "VEC3"
    },
    {
      "bufferView": 1,
      "byteOffset": 54192,
      "componentType": 5126,
      "count": 496,
      "max": [
        0.9722222089767456,
        2.0595998764038086
      ],
      "min": [
        -0.027777791023254395,
        0.0
      ],
      "type": "VEC2"
    },
    {
      "bufferView": 0,
      "byteOffset": 129456,
      "componentType": 5125,
      "count": 2592,
      "type": "SCALAR"
    },
    {
      "bufferView": 2,
      "byteOffset": 174480,
      "componentType": 5126,
      "count": 496,
      "max": [
        1.196770191192627,
        91.83318328857422,
        73.56436157226563
      ],
      "min": [
        -145.96231079101563,
        -16.79503631591797,
        -12.599357604980469
      ],
      "type": "VEC3"
    },
    {
      "bufferView": 2,
      "byteOffset": 180432,
      "componentType": 5126,
      "count": 496,
      "max": [
        0.8051562309265137,
        0.8696439266204834,
        0.9294191002845764
      ],
      "min": [
        -0.7802020311355591,
        -0.8691176772117615,
        -0.9294121265411377
      ],
      "type": "VEC3"
    },
    {
      "bufferView": 1,
      "byteOffset": 58160,
      "componentType": 5126,
      "count": 496,
      "max": [
        0.9722222089767456,
        2.7100000381469727
      ],
      "min": [
        -0.027777791023254395,
        0.0
      ],
      "type": "VEC2"
    },
    {
      "bufferView": 0,
      "byteOffset": 139824,
      "componentType": 5125,
      "count": 2592,
      "type": "SCALAR"
    },
    {
      "bufferView": 2,
      "byteOffset": 186384,
      "componentType": 5126,
      "count": 150,
      "max": [
        2.9720611572265625,
        4.159091949462891,
        66.52117156982422
      ],
      "min": [
        -3.9977874755859375,
        -2.8904476165771484,
        0.0
      ],
      "type": "VEC3"
    },
    {
      "bufferView": 2,
      "byteOffset": 188184,
      "componentType": 5126,
      "count": 150,
      "max": [
        0.9999364614486694,
        0.9899405837059021,
        1.0
      ],
      "min": [
        -0.9999437928199768,
        -0.990764856338501,
        -1.0
      ],
      "type": "VEC3"
    },
    {
      "bufferView": 1,
      "byteOffset": 62128,
      "componentType": 5126,
      "count": 150,
      "max": [
        0.9722222089767456,
        1.0
      ],
      "min": [
        -0.027777791023254395,
        0.0
      ],
      "type": "VEC2"
    },
    {
      "bufferView": 0,
      "byteOffset": 150192,
      "componentType": 5125,
      "count": 636,
      "type": "SCALAR"
    },
    {
      "bufferView": 2,
      "byteOffset": 189984,
      "componentType": 5126,
      "count": 496,
      "max": [
        3.907008171081543,
        0.6430067420005798,
        2.716762065887451
      ],
      "min": [
        -82.61534118652344,
        -10.678546905517578,
        -2.346085548400879
      ],
      "type": "VEC3"
    },
    {
      "bufferView": 2,
      "byteOffset": 195936,
      "componentType": 5126,
      "count": 496,
      "max": [
        0.9784300923347473,
        0.9998752474784851,
        0.9936238527297974
      ],
      "min": [
        -0.9921456575393677,
        -0.9998193979263306,
        -0.9944021701812744
      ],
      "type": "VEC3"
    },
    {
      "bufferView": 1,
      "byteOffset": 63328,
      "componentType": 5126,
      "count": 496,
      "max": [
        0.9722222089767456,
        1.0
      ],
      "min": [
        -0.027777791023254395,
        0.0
      ],
      "type": "VEC2"
    },
    {
      "bufferView": 0,
      "byteOffset": 152736,
      "componentType": 5125,
      "count": 2592,
      "type": "SCALAR"
    },
    {
      "bufferView": 2,
      "byteOffset": 201888,
      "componentType": 5126,
      "count": 496,
      "max": [
        7.678823471069336,
        4.802394866943359,
        -2.970306634902954
      ],
      "min": [
        -141.37107849121094,
        -9.901890754699707,
        -23.798904418945313
      ],
      "type": "VEC3"
    },
    {
      "bufferView": 2,
      "byteOffset": 207840,
      "componentType": 5126,
      "count": 496,
      "max": [
        0.9499449133872986,
        0.9996382594108582,
        0.9894576668739319
      ],
      "min": [
        -0.9858900308609009,
        -0.9996048212051392,
        -0.9904287457466125
      ],
      "type": "VEC3"
    },
    {
      "bufferView": 1,
      "byteOffset": 67296,
      "componentType": 5126,
      "count": 496,
      "max": [
        0.9722222089767456,
        2.0595998764038086
      ],
      "min": [
        -0.027777791023254395,
        0.0
      ],
      "type": "VEC2"
    },
    {
      "bufferView": 0,
      "byteOffset": 163104,
      "componentType": 5125,
      "count": 2592,
      "type": "SCALAR"
    },
    {
      "bufferView": 2,
      "byteOffset": 213792,
      "componentType": 5126,
      "count": 496,
      "max": [
        2.2193589210510254,
        7.646526336669922,
        7.993963241577148
      ],
      "min": [
        -135.4803924560547,
        -32.00349426269531,
        -5.790205478668213
      ],
      "type": "VEC3"
    },
    {
      "bufferView": 2,
      "byteOffset": 219744,
      "componentType": 5126,
      "count": 496,
      "max": [
        0.9347293376922607,
        0.9820576310157776,
        0.9874609112739563
      ],
      "min": [
        -0.9711588025093079,
        -0.9824706315994263,
        -0.9880062341690063
      ],
      "type": "VEC3"
    },
    {
      "bufferView": 1,
      "byteOffset": 71264,
      "componentType": 5126,
      "count": 496,
      "max": [
        0.9722222089767456,
        2.0595998764038086
      ],
      "min": [
        -0.027777791023254395,
        0.0
      ],
      "type": "VEC2"
    },
    {
      "bufferView": 0,
      "byteOffset": 173472,
      "componentType": 5125,
      "count": 2592,
      "type": "SCALAR"
    },
    {
      "bufferView": 2,
      "byteOffset": 225696,
      "componentType": 5126,
      "count": 496,
      "max": [
        7.572443962097168,
        9.045196533203125,
        -3.325737476348877
      ],
      "min": [
        -142.87539672851563,
        -5.258464336395264,
        -24.36090850830078
      ],
      "type": "VEC3"
    },
    {
      "bufferView": 2,
      "byteOffset": 231648,
      "componentType": 5126,
      "count": 496,
      "max": [
        0.9457743763923645,
        0.9998709559440613,
        0.984967827796936
      ],
      "min": [
        -0.9865152835845947,
        -0.9998357892036438,
        -0.9861545562744141
      ],
      "type": "VEC3"
    },
    {
      "bufferView": 1,
      "byteOffset": 75232,
      "componentType": 5126,
      "count": 496,
      "max": [
        0.9722222089767456,
        2.0595998764038086
      ],
      "min": [
        -0.027777791023254395,
        0.0
      ],
      "type": "VEC2"
    },
    {
      "bufferView": 0,
      "byteOffset": 183840,
      "componentType": 5125,
      "count": 2592,
      "type": "SCALAR"
    },
    {
      "bufferView": 2,
      "byteOffset": 237600,
      "componentType": 5126,
      "count": 496,
      "max": [
        2.0950608253479004,
        30.02329444885254,
        7.751890182495117
      ],
      "min": [
        -137.05856323242188,
        -7.794492244720459,
        -6.680328845977783
      ],
      "type": "VEC3"
    },
    {
      "bufferView": 2,
      "byteOffset": 243552,
      "componentType": 5126,
      "count": 496,
      "max": [
        0.9400138258934021,
        0.980035126209259,
        0.9909231662750244
      ],
      "min": [
        -0.9800835847854614,
        -0.9800812005996704,
        -0.9910619854927063
      ],
      "type": "VEC3"
    },
    {
      "bufferView": 1,
      "byteOffset": 79200,
      "componentType": 5126,
      "count": 496,
      "max": [
        0.9722222089767456,
        2.0595998764038086
      ],
      "min": [
        -0.027777791023254395,
        0.0
      ],
      "type": "VEC2"
    },
    {
      "bufferView": 0,
      "byteOffset": 194208,
      "componentType": 5125,
      "count": 2592,
      "type": "SCALAR"
    },
    {
      "bufferView": 2,
      "byteOffset": 249504,
      "componentType": 5126,
      "count": 150,
      "max": [
        4.793701171875,
        2.9424667358398438,
        66.5291748046875
      ],
      "min": [
        -3.683563232421875,
        -4.832923889160156,
        0.0
      ],
      "type": "VEC3"
    },
    {
      "bufferView": 2,
      "byteOffset": 251304,
      "componentType": 5126,
      "count": 150,
      "max": [
        0.9994029998779297,
        0.9929698705673218,
        1.0
      ],
      "min": [
        -0.9992699027061462,
        -0.9907127022743225,
        -1.0
      ],
      "type": "VEC3"
    },
    {
      "bufferView": 1,
      "byteOffset": 83168,
      "componentType": 5126,
      "count": 150,
      "max": [
        0.9722222089767456,
        1.0
      ],
      "min": [
        -0.027777791023254395,
        0.0
      ],
      "type": "VEC2"
    },
    {
      "bufferView": 0,
      "byteOffset": 204576,
      "componentType": 5125,
      "count": 636,
      "type": "SCALAR"
    },
    {
      "bufferView": 2,
      "byteOffset": 253104,
      "componentType": 5126,
      "count": 150,
      "max": [
        2.968536376953125,
        4.828351974487305,
        66.52117156982422
      ],
      "min": [
        -4.27191162109375,
        -2.6267566680908203,
        -4.76837158203125e-07
      ],
      "type": "VEC3"
    },
    {
      "bufferView": 2,
      "byteOffset": 254904,
      "componentType": 5126,
      "count": 150,
      "max": [
        0.9999111294746399,
        0.9868869781494141,
        1.0
      ],
      "min": [
        -0.9999630451202393,
        -0.9875156879425049,
        -1.0
      ],
      "type": "VEC3"
    },
    {
      "bufferView": 1,
      "byteOffset": 84368,
      "componentType": 5126,
      "count": 150,
      "max": [
        0.9722222089767456,
        1.0
      ],
      "min": [
        -0.027777791023254395,
        0.0
      ],
      "type": "VEC2"
    },
    {
      "bufferView": 0,
      "byteOffset": 207120,
      "componentType": 5125,
      "count": 636,
      "type": "SCALAR"
    },
    {
      "bufferView": 2,
      "byteOffset": 256704,
      "componentType": 5126,
      "count": 496,
      "max": [
        2.3892931938171387,
        90.41771697998047,
        74.63850402832031
      ],
      "min": [
        -141.5186309814453,
        -16.525535583496094,
        -12.858705520629883
      ],
      "type": "VEC3"
    },
    {
      "bufferView": 2,
      "byteOffset": 262656,
      "componentType": 5126,
      "count": 496,
      "max": [
        0.8071134686470032,
        0.866389811038971,
        0.920288622379303
      ],
      "min": [
        -0.7673614025115967,
        -0.8659648299217224,
        -0.920074462890625
      ],
      "type": "VEC3"
    },
    {
      "bufferView": 1,
      "byteOffset": 85568,
      "componentType": 5126,
      "count": 496,
      "max": [
        0.9722222089767456,
        2.7099997997283936
      ],
      "min": [
        -0.027777791023254395,
        0.0
      ],
      "type": "VEC2"
    },
    {
      "bufferView": 0,
      "byteOffset": 209664,
      "componentType": 5125,
      "count": 2592,
      "type": "SCALAR"
    },
    {
      "bufferView": 2,
      "byteOffset": 268608,
      "componentType": 5126,
      "count": 496,
      "max": [
        4.601006031036377,
        10.868788719177246,
        2.269015312194824
      ],
      "min": [
        -81.95478820800781,
        -0.06393757462501526,
        -2.5037567615509033
      ],
      "type": "VEC3"
    },
    {
      "bufferView": 2,
      "byteOffset": 274560,
      "componentType": 5126,
      "count": 496,
      "max": [
        0.9822874069213867,
        0.999058723449707,
        0.9936080574989319
      ],
      "min": [
        -0.9893983602523804,
        -0.9994435906410217,
        -0.9944551587104797
      ],
      "type": "VEC3"
    },
    {
      "bufferView": 1,
      "byteOffset": 89536,
      "componentType": 5126,
      "count": 496,
      "max": [
        0.9722222089767456,
        1.0
      ],
      "min": [
        -0.027777791023254395,
        0.0
      ],
      "type": "VEC2"
    },
    {
      "bufferView": 0,
      "byteOffset": 220032,
      "componentType": 5125,
      "count": 2592,
      "type": "SCALAR"
    },
    {
      "bufferView": 2,
      "byteOffset": 280512,
      "componentType": 5126,
      "count": 496,
      "max": [
        0.33427977561950684,
        30.79289436340332,
        128.96676635742188
      ],
      "min": [
        -9.723162651062012,
        -3.128760814666748,
        -6.604526042938232
      ],
      "type": "VEC3"
    },
    {
      "bufferView": 2,
      "byteOffset": 286464,
      "componentType": 5126,
      "count": 496,
      "max": [
        0.9958502054214478,
        0.9748557209968567,
        0.9825761318206787
      ],
      "min": [
        -0.9962463974952698,
        -0.9745517373085022,
        -0.9772230386734009
      ],
      "type": "VEC3"
    },
    {
      "bufferView": 1,
      "byteOffset": 93504,
      "componentType": 5126,
      "count": 496,
      "max": [
        0.9722222089767456,
        2.0595998764038086
      ],
      "min": [
        -0.027777791023254395,
        0.0
      ],
      "type": "VEC2"
    },
    {
      "bufferView": 0,
      "byteOffset": 230400,
      "componentType": 5125,
      "count": 2592,
      "type": "SCALAR"
    },
    {
      "bufferView": 2,
      "byteOffset": 292416,
      "componentType": 5126,
      "count": 496,
      "max": [
        -3.708014965057373,
        68.75244140625,
        106.45606231689453
      ],
      "min": [
        -46.6214714050293,
        -3.8971107006073,
        -5.846631050109863
      ],
      "type": "VEC3"
    },
    {
      "bufferView": 2,
      "byteOffset": 298368,
      "componentType": 5126,
      "count": 496,
      "max": [
        0.9772735238075256,
        0.8767827749252319,
        0.7772121429443359
      ],
      "min": [
        -0.9756633639335632,
        -0.8748690485954285,
        -0.8655085563659668
      ],
      "type": "VEC3"
    },
    {
      "bufferView": 1,
      "byteOffset": 97472,
      "componentType": 5126,
      "count": 496,
      "max": [
        0.9722222089767456,
        1.0
      ],
      "min": [
        -0.027777791023254395,
        0.0
      ],
      "type": "VEC2"
    },
    {
      "bufferView": 0,
      "byteOffset": 240768,
      "componentType": 5125,
      "count": 2592,
      "type": "SCALAR"
    },
    {
      "bufferView": 2,
      "byteOffset": 304320,
      "componentType": 5126,
      "count": 496,
      "max": [
        0.947661280632019,
        2.6836600303649902,
        129.91357421875
      ],
      "min": [
        -9.09688949584961,
        -22.511512756347656,
        -5.71973991394043
      ],
      "type": "VEC3"
    },
    {
      "bufferView": 2,
      "byteOffset": 310272,
      "componentType": 5126,
      "count": 496,
      "max": [
        0.9983569979667664,
        0.9884103536605835,
        0.9821208119392395
      ],
      "min": [
        -0.9975946545600891,
        -0.9882364869117737,
        -0.9903520941734314
      ],
      "type": "VEC3"
    },
    {
      "bufferView": 1,
      "byteOffset": 101440,
      "componentType": 5126,
      "count": 496,
      "max": [
        0.9722222089767456,
        2.0595998764038086
      ],
      "min": [
        -0.027777791023254395,
        0.0
      ],
      "type": "VEC2"
    },
    {
      "bufferView": 0,
      "byteOffset": 251136,
      "componentType": 5125,
      "count": 2592,
      "type": "SCALAR"
    },
    {
      "bufferView": 2,
      "byteOffset": 316224,
      "componentType": 5126,
      "count": 496,
      "max": [
        -3.024527072906494,
        3.2013049125671387,
        108.17536163330078
      ],
      "min": [
        -43.00772476196289,
        -66.87112426757813,
        -4.418829441070557
      ],
      "type": "VEC3"
    },
    {
      "bufferView": 2,
      "byteOffset": 322176,
      "componentType": 5126,
      "count": 496,
      "max": [
        0.9848037958145142,
        0.8724813461303711,
        0.8212935328483582
      ],
      "min": [
        -0.9826309084892273,
        -0.8738300800323486,
        -0.9021433591842651
      ],
      "type": "VEC3"
    },
    {
      "bufferView": 1,
      "byteOffset": 105408,
      "componentType": 5126,
      "count": 496,
      "max": [
        0.9722222089767456,
        2.0595998764038086
      ],
      "min": [
        -0.027777791023254395,
        0.0
      ],
      "type": "VEC2"
    },
    {
      "bufferView": 0,
      "byteOffset": 261504,
      "componentType": 5125,
      "count": 2592,
      "type": "SCALAR"
    },
    {
      "bufferView": 2,
      "byteOffset": 328128,
      "componentType": 5126,
      "count": 5888,
      "max": [
        78.03851318359375,
        267.2221984863281,
        1.516754150390625
      ],
      "min": [
        -394.08355712890625,
        -21.793182373046875,
        -47.22399139404297
      ],
      "type": "VEC3"
    },
    {
      "bufferView": 2,
      "byteOffset": 398784,
      "componentType": 5126,
      "count": 5888,
      "max": [
        0.9999995827674866,
        0.9999995827674866,
        1.0
      ],
      "min": [
        -0.9999995827674866,
        -0.9999995827674866,
        -1.0
      ],
      "type": "VEC3"
    },
    {
      "bufferView": 1,
      "byteOffset": 109376,
      "componentType": 5126,
      "count": 5888,
      "max": [
        1.0,
        1.0
      ],
      "min": [
        0.0,
        0.0
      ],
      "type": "VEC2"
    },
    {
      "bufferView": 0,
      "byteOffset": 271872,
      "componentType": 5125,
      "count": 25944,
      "type": "SCALAR"
    },
    {
      "bufferView": 2,
      "byteOffset": 469440,
      "componentType": 5126,
      "count": 8068,
      "max": [
        76.15768432617188,
        470.702392578125,
        71.13340759277344
      ],
      "min": [
        -422.7863464355469,
        150.11614990234375,
        -7.984855651855469
      ],
      "type": "VEC3"
    },
    {
      "bufferView": 2,
      "byteOffset": 566256,
      "componentType": 5126,
      "count": 8068,
      "max": [
        0.9999737739562988,
        0.9999982714653015,
        0.2142060548067093
      ],
      "min": [
        -0.999987781047821,
        -0.999998927116394,
        -0.9999179840087891
      ],
      "type": "VEC3"
    },
    {
      "bufferView": 1,
      "byteOffset": 156480,
      "componentType": 5126,
      "count": 8068,
      "max": [
        0.9607926607131958,
        0.5678569674491882
      ],
      "min": [
        0.04066581279039383,
        0.4306827187538147
      ],
      "type": "VEC2"
    },
    {
      "bufferView": 0,
      "byteOffset": 375648,
      "componentType": 5125,
      "count": 47040,
      "type": "SCALAR"
    },
    {
      "bufferView": 2,
      "byteOffset": 663072,
      "componentType": 5126,
      "count": 11759,
      "max": [
        77.46096801757813,
        471.8364562988281,
        210.37130737304688
      ],
      "min": [
        -423.2997741699219,
        149.08731079101563,
        50.5856819152832
      ],
      "type": "VEC3"
    },
    {
      "bufferView": 2,
      "byteOffset": 804180,
      "componentType": 5126,
      "count": 11759,
      "max": [
        0.9998661279678345,
        0.9997121691703796,
        0.9969332218170166
      ],
      "min": [
        -0.9999935030937195,
        -0.9971887469291687,
        -0.9999964833259583
      ],
      "type": "VEC3"
    },
    {
      "bufferView": 1,
      "byteOffset": 221024,
      "componentType": 5126,
      "count": 11759,
      "max": [
        0.9727261662483215,
        0.8021811246871948
      ],
      "min": [
        0.03338339179754257,
        0.21548792719841003
      ],
      "type": "VEC2"
    },
    {
      "bufferView": 0,
      "byteOffset": 563808,
      "componentType": 5125,
      "count": 69462,
      "type": "SCALAR"
    },
    {
      "bufferView": 2,
      "byteOffset": 945288,
      "componentType": 5126,
      "count": 3757,
      "max": [
        354.41961669921875,
        217.46444702148438,
        -5.273374080657959
      ],
      "min": [
        -351.61688232421875,
        -219.2481689453125,
        -7.593562602996826
      ],
      "type": "VEC3"
    },
    {
      "bufferView": 2,
      "byteOffset": 990372,
      "componentType": 5126,
      "count": 3757,
      "max": [
        0.05046642944216728,
        0.055042728781700134,
        1.0
      ],
      "min": [
        -0.05047782510519028,
        -0.05322142690420151,
        0.9984815120697021
      ],
      "type": "VEC3"
    },
    {
      "bufferView": 1,
      "byteOffset": 315096,
      "componentType": 5126,
      "count": 3757,
      "max": [
        1.676727533340454,
        1.2278544902801514
      ],
      "min": [
        -0.6767275333404541,
        -0.2278544306755066
      ],
      "type": "VEC2"
    },
    {
      "bufferView": 0,
      "byteOffset": 841656,
      "componentType": 5125,
      "count": 5046,
      "type": "SCALAR"
    }
  ],
  "asset": {
    "extras": {
      "author": "borisquezadaa (https://sketchfab.com/borisquezadaa)",
      "license": "CC-BY-4.0 (http://creativecommons.org/licenses/by/4.0/)",
      "source": "https://sketchfab.com/3d-models/ruka-ruca-mapuche-con-estructura-interior-ee090c403bd14aa5b80b49ed36fe4263",
      "title": "Ruka, ruca mapuche con estructura interior"
    },
    "generator": "Sketchfab-12.67.0",
    "version": "2.0"
  },
  "bufferViews": [
    {
      "buffer": 0,
      "byteLength": 861840,
      "name": "floatBufferViews",
      "target": 34963
    },
    {
      "buffer": 0,
      "byteLength": 345152,
      "byteOffset": 861840,
      "byteStride": 8,
      "name": "floatBufferViews",
      "target": 34962
    },
    {
      "buffer": 0,
      "byteLength": 1035456,
      "byteOffset": 1206992,
      "byteStride": 12,
      "name": "floatBufferViews",
      "target": 34962
    }
  ],
  "buffers": [
    {
      "byteLength": 2242448,
      "uri": "scene.bin"
    }
  ],
  "images": [
    {
      "uri": "textures/Madera_baseColor.jpeg"
    },
    {
      "uri": "textures/SIDE_baseColor.jpeg"
    },
    {
      "uri": "textures/material_baseColor.jpeg"
    },
    {
      "uri": "textures/TIERRA_baseColor.jpeg"
    }
  ],
  "materials": [
    {
      "doubleSided": true,
      "name": "Madera",
      "pbrMetallicRoughness": {
        "baseColorTexture": {
          "index": 0
        },
        "metallicFactor": 0.0,
        "roughnessFactor": 0.6
      }
    },
    {
      "doubleSided": true,
      "name": "SIDE",
      "pbrMetallicRoughness": {
        "baseColorTexture": {
          "index": 1
        },
        "metallicFactor": 0.0,
        "roughnessFactor": 0.6
      }
    },
    {
      "doubleSided": true,
      "name": "material",
      "pbrMetallicRoughness": {
        "baseColorTexture": {
          "index": 2
        },
        "metallicFactor": 0.0,
        "roughnessFactor": 0.6
      }
    },
    {
      "doubleSided": true,
      "name": "TIERRA",
      "pbrMetallicRoughness": {
        "baseColorTexture": {
          "index": 3
        },
        "metallicFactor": 0.0,
        "roughnessFactor": 0.6
      }
    }
  ],
  "meshes": [
    {
      "name": "RUCA_Madera_0",
      "primitives": [
        {
          "attributes": {
            "NORMAL": 1,
            "POSITION": 0,
            "TEXCOORD_0": 2
          },
          "indices": 3,
          "material": 0,
          "mode": 4
        }
      ]
    },
    {
      "name": "Cylinder051_Madera_0",
      "primitives": [
        {
          "attributes": {
            "NORMAL": 5,
            "POSITION": 4,
            "TEXCOORD_0": 6
          },
          "indices": 7,
          "material": 0,
          "mode": 4
        }
      ]
    },
    {
      "name": "Cylinder052_Madera_0",
      "primitives": [
        {
          "attributes": {
            "NORMAL": 9,
            "POSITION": 8,
            "TEXCOORD_0": 10
          },
          "indices": 11,
          "material": 0,
          "mode": 4
        }
      ]
    },
    {
      "name": "Cylinder053_Madera_0",
      "primitives": [
        {
          "attributes": {
            "NORMAL": 13,
            "POSITION": 12,
            "TEXCOORD_0": 14
          },
          "indices": 15,
          "material": 0,
          "mode": 4
        }
      ]
    },
    {
      "name": "Cylinder054_Madera_0",
      "primitives": [
        {
          "attributes": {
            "NORMAL": 17,
            "POSITION": 16,
            "TEXCOORD_0": 18
          },
          "indices": 19,
          "material": 0,
          "mode": 4
        }
      ]
    },
    {
      "name": "Cylinder055_Madera_0",
      "primitives": [
        {
          "attributes": {
            "NORMAL": 21,
            "POSITION": 20,
            "TEXCOORD_0": 22
          },
          "indices": 23,
          "material": 0,
          "mode": 4
        }
      ]
    },
    {
      "name": "Cylinder056_Madera_0",
      "primitives": [
        {
          "attributes": {
            "NORMAL": 25,
            "POSITION": 24,
            "TEXCOORD_0": 26
          },
          "indices": 27,
          "material": 0,
          "mode": 4
        }
      ]
    },
    {
      "name": "Cylinder057_Madera_0",
      "primitives": [
        {
          "attributes": {
            "NORMAL": 29,
            "POSITION": 28,
            "TEXCOORD_0": 30
          },
          "indices": 31,
          "material": 0,
          "mode": 4
        }
      ]
    },
    {
      "name": "Cylinder058_Madera_0",
      "primitives": [
        {
          "attributes": {
            "NORMAL": 33,
            "POSITION": 32,
            "TEXCOORD_0": 34
          },
          "indices": 35,
          "material": 0,
          "mode": 4
        }
      ]
    },
    {
      "name": "Cylinder059_Madera_0",
      "primitives": [
        {
          "attributes": {
            "NORMAL": 37,
            "POSITION": 36,
            "TEXCOORD_0": 38
          },
          "indices": 39,
          "material": 0,
          "mode": 4
        }
      ]
    },
    {
      "name": "Cylinder060_Madera_0",
      "primitives": [
        {
          "attributes": {
            "NORMAL": 41,
            "POSITION": 40,
            "TEXCOORD_0": 42
          },
          "indices": 43,
          "material": 0,
          "mode": 4
        }
      ]
    },
    {
      "name": "Cylinder061_Madera_0",
      "primitives": [
        {
          "attributes": {
            "NORMAL": 45,
            "POSITION": 44,
            "TEXCOORD_0": 46
          },
          "indices": 47,
          "material": 0,
          "mode": 4
        }
      ]
    },
    {
      "name": "Cylinder062_Madera_0",
      "primitives": [
        {
          "attributes": {
            "NORMAL": 49,
            "POSITION": 48,
            "TEXCOORD_0": 50
          },
          "indices": 51,
          "material": 0,
          "mode": 4
        }
      ]
    },
    {
      "name": "Cylinder063_Madera_0",
      "primitives": [
        {
          "attributes": {
            "NORMAL": 53,
            "POSITION": 52,
            "TEXCOORD_0": 54
          },
          "indices": 55,
          "material": 0,
          "mode": 4
        }
      ]
    },
    {
      "name": "Cylinder064_Madera_0",
      "primitives": [
        {
          "attributes": {
            "NORMAL": 57,
            "POSITION": 56,
            "TEXCOORD_0": 58
          },
          "indices": 59,
          "material": 0,
          "mode": 4
        }
      ]
    },
    {
      "name": "Cylinder065_Madera_0",
      "primitives": [
        {
          "attributes": {
            "NORMAL": 61,
            "POSITION": 60,
            "TEXCOORD_0": 62
          },
          "indices": 63,
          "material": 0,
          "mode": 4
        }
      ]
    },
    {
      "name": "Cylinder066_Madera_0",
      "primitives": [
        {
          "attributes": {
            "NORMAL": 65,
            "POSITION": 64,
            "TEXCOORD_0": 66
          },
          "indices": 67,
          "material": 0,
          "mode": 4
        }
      ]
    },
    {
      "name": "Cylinder067_Madera_0",
      "primitives": [
        {
          "attributes": {
            "NORMAL": 69,
            "POSITION": 68,
            "TEXCOORD_0": 70
          },
          "indices": 71,
          "material": 0,
          "mode": 4
        }
      ]
    },
    {
      "name": "Cylinder068_Madera_0",
      "primitives": [
        {
          "attributes": {
            "NORMAL": 73,
            "POSITION": 72,
            "TEXCOORD_0": 74
          },
          "indices": 75,
          "material": 0,
          "mode": 4
        }
      ]
    },
    {
      "name": "Cylinder069_Madera_0",
      "primitives": [
        {
          "attributes": {
            "NORMAL": 77,
            "POSITION": 76,
            "TEXCOORD_0": 78
          },
          "indices": 79,
          "material": 0,
          "mode": 4
        }
      ]
    },
    {
      "name": "Cylinder070_Madera_0",
      "primitives": [
        {
          "attributes": {
            "NORMAL": 81,
            "POSITION": 80,
            "TEXCOORD_0": 82
          },
          "indices": 83,
          "material": 0,
          "mode": 4
        }
      ]
    },
    {
      "name": "Cylinder071_Madera_0",
      "primitives": [
        {
          "attributes": {
            "NORMAL": 85,
            "POSITION": 84,
            "TEXCOORD_0": 86
          },
          "indices": 87,
          "material": 0,
          "mode": 4
        }
      ]
    },
    {
      "name": "Cylinder072_Madera_0",
      "primitives": [
        {
          "attributes": {
            "NORMAL": 89,
            "POSITION": 88,
            "TEXCOORD_0": 90
          },
          "indices": 91,
          "material": 0,
          "mode": 4
        }
      ]
    },
    {
      "name": "Cylinder073_Madera_0",
      "primitives": [
        {
          "attributes": {
            "NORMAL": 93,
            "POSITION": 92,
            "TEXCOORD_0": 94
          },
          "indices": 95,
          "material": 0,
          "mode": 4
        }
      ]
    },
    {
      "name": "Cylinder074_Madera_0",
      "primitives": [
        {
          "attributes": {
            "NORMAL": 97,
            "POSITION": 96,
            "TEXCOORD_0": 98
          },
          "indices": 99,
          "material": 0,
          "mode": 4
        }
      ]
    },
    {
      "name": "Cylinder075_Madera_0",
      "primitives": [
        {
          "attributes": {
            "NORMAL": 101,
            "POSITION": 100,
            "TEXCOORD_0": 102
          },
          "indices": 103,
          "material": 0,
          "mode": 4
        }
      ]
    },
    {
      "name": "Cylinder076_Madera_0",
      "primitives": [
        {
          "attributes": {
            "NORMAL": 105,
            "POSITION": 104,
            "TEXCOORD_0": 106
          },
          "indices": 107,
          "material": 0,
          "mode": 4
        }
      ]
    },
    {
      "name": "Cylinder077_Madera_0",
      "primitives": [
        {
          "attributes": {
            "NORMAL": 109,
            "POSITION": 108,
            "TEXCOORD_0": 110
          },
          "indices": 111,
          "material": 0,
          "mode": 4
        }
      ]
    },
    {
      "name": "Cylinder078_Madera_0",
      "primitives": [
        {
          "attributes": {
            "NORMAL": 113,
            "POSITION": 112,
            "TEXCOORD_0": 114
          },
          "indices": 115,
          "material": 0,
          "mode": 4
        }
      ]
    },
    {
      "name": "Cylinder079_Madera_0",
      "primitives": [
        {
          "attributes": {
            "NORMAL": 117,
            "POSITION": 116,
            "TEXCOORD_0": 118
          },
          "indices": 119,
          "material": 0,
          "mode": 4
        }
      ]
    },
    {
      "name": "Cylinder080_Madera_0",
      "primitives": [
        {
          "attributes": {
            "NORMAL": 121,
            "POSITION": 120,
            "TEXCOORD_0": 122
          },
          "indices": 123,
          "material": 0,
          "mode": 4
        }
      ]
    },
    {
      "name": "Cylinder081_Madera_0",
      "primitives": [
        {
          "attributes": {
            "NORMAL": 125,
            "POSITION": 124,
            "TEXCOORD_0": 126
          },
          "indices": 127,
          "material": 0,
          "mode": 4
        }
      ]
    },
    {
      "name": "Cylinder082_Madera_0",
      "primitives": [
        {
          "attributes": {
            "NORMAL": 129,
            "POSITION": 128,
            "TEXCOORD_0": 130
          },
          "indices": 131,
          "material": 0,
          "mode": 4
        }
      ]
    },
    {
      "name": "Cylinder083_Madera_0",
      "primitives": [
        {
          "attributes": {
            "NORMAL": 133,
            "POSITION": 132,
            "TEXCOORD_0": 134
          },
          "indices": 135,
          "material": 0,
          "mode": 4
        }
      ]
    },
    {
      "name": "Cylinder084_Madera_0",
      "primitives": [
        {
          "attributes": {
            "NORMAL": 137,
            "POSITION": 136,
            "TEXCOORD_0": 138
          },
          "indices": 139,
          "material": 0,
          "mode": 4
        }
      ]
    },
    {
      "name": "Cylinder085_Madera_0",
      "primitives": [
        {
          "attributes": {
            "NORMAL": 141,
            "POSITION": 140,
            "TEXCOORD_0": 142
          },
          "indices": 143,
          "material": 0,
          "mode": 4
        }
      ]
    },
    {
      "name": "Cylinder086_Madera_0",
      "primitives": [
        {
          "attributes": {
            "NORMAL": 145,
            "POSITION": 144,
            "TEXCOORD_0": 146
          },
          "indices": 147,
          "material": 0,
          "mode": 4
        }
      ]
    },
    {
      "name": "Cylinder087_Madera_0",
      "primitives": [
        {
          "attributes": {
            "NORMAL": 149,
            "POSITION": 148,
            "TEXCOORD_0": 150
          },
          "indices": 151,
          "material": 0,
          "mode": 4
        }
      ]
    },
    {
      "name": "Cylinder088_Madera_0",
      "primitives": [
        {
          "attributes": {
            "NORMAL": 153,
            "POSITION": 152,
            "TEXCOORD_0": 154
          },
          "indices": 155,
          "material": 0,
          "mode": 4
        }
      ]
    },
    {
      "name": "Cylinder089_Madera_0",
      "primitives": [
        {
          "attributes": {
            "NORMAL": 157,
            "POSITION": 156,
            "TEXCOORD_0": 158
          },
          "indices": 159,
          "material": 0,
          "mode": 4
        }
      ]
    },
    {
      "name": "Cylinder090_Madera_0",
      "primitives": [
        {
          "attributes": {
            "NORMAL": 161,
            "POSITION": 160,
            "TEXCOORD_0": 162
          },
          "indices": 163,
          "material": 0,
          "mode": 4
        }
      ]
    },
    {
      "name": "Cylinder091_Madera_0",
      "primitives": [
        {
          "attributes": {
            "NORMAL": 165,
            "POSITION": 164,
            "TEXCOORD_0": 166
          },
          "indices": 167,
          "material": 0,
          "mode": 4
        }
      ]
    },
    {
      "name": "Cylinder092_Madera_0",
      "primitives": [
        {
          "attributes": {
            "NORMAL": 169,
            "POSITION": 168,
            "TEXCOORD_0": 170
          },
          "indices": 171,
          "material": 0,
          "mode": 4
        }
      ]
    },
    {
      "name": "Cylinder093_Madera_0",
      "primitives": [
        {
          "attributes": {
            "NORMAL": 173,
            "POSITION": 172,
            "TEXCOORD_0": 174
          },
          "indices": 175,
          "material": 0,
          "mode": 4
        }
      ]
    },
    {
      "name": "Line023_Madera_0",
      "primitives": [
        {
          "attributes": {
            "NORMAL": 177,
            "POSITION": 176,
            "TEXCOORD_0": 178
          },
          "indices": 179,
          "material": 0,
          "mode": 4
        }
      ]
    },
    {
      "name": "RUCA_CUBIERTA_SIDE_0",
      "primitives": [
        {
          "attributes": {
            "NORMAL": 181,
            "POSITION": 180,
            "TEXCOORD_0": 182
          },
          "indices": 183,
          "material": 1,
          "mode": 4
        }
      ]
    },
    {
      "name": "RUCA_CUBIERTA_TOP_0",
      "primitives": [
        {
          "attributes": {
            "NORMAL": 185,
            "POSITION": 184,
            "TEXCOORD_0": 186
          },
          "indices": 187,
          "material": 2,
          "mode": 4
        }
      ]
    },
    {
      "name": "RUCA_TERRENO_TIERRA_0",
      "primitives": [
        {
          "attributes": {
            "NORMAL": 189,
            "POSITION": 188,
            "TEXCOORD_0": 190
          },
          "indices": 191,
          "material": 3,
          "mode": 4
        }
      ]
    }
  ],
  "nodes": [
    {
      "children": [
        1
      ],
      "matrix": [
        0.03030303120613098,
        0.0,
        0.0,
        0.0,
        0.0,
        6.728624592196249e-18,
        -0.03030303120613098,
        0.0,
        0.0,
        0.03030303120613098,
        6.728624592196249e-18,
        0.0,
        0.0,
        0.0,
        0.0,
        1.0
      ],
      "name": "Sketchfab_model"
    },
    {
      "children": [
        2
      ],
      "matrix": [
        1.0,
        0.0,
        0.0,
        0.0,
        0.0,
        0.0,
        1.0,
        0.0,
        0.0,
        -1.0,
        0.0,
        0.0,
        0.0,
        0.0,
        0.0,
        1.0
      ],
      "name": "Ruca V01.fbx"
    },
    {
      "children": [
        3,
        5,
        7,
        9,
        11,
        13,
        15,
        17,
        19,
        21,
        23,
        25,
        27,
        29,
        31,
        33,
        35,
        37,
        39,
        41,
        43,
        45,
        47,
        49,
        51,
        53,
        55,
        57,
        59,
        61,
        63,
        65,
        67,
        69,
        71,
        73,
        75,
        77,
        79,
        81,
        83,
        85,
        87,
        89,
        91,
        93,
        96
      ],
      "name": "RootNode"
    },
    {
      "children": [
        4
      ],
      "matrix": [
        1.0,
        0.0,
        0.0,
        0.0,
        0.0,
        2.220446049250313e-16,
        -1.0,
        0.0,
        0.0,
        1.0,
        2.220446049250313e-16,
        0.0,
        -131.55853271484375,
        -0.6237907409667969,
        -5.407068252563477,
        1.0
      ],
      "name": "RUCA"
    },
    {
      "mesh": 0,
      "name": "RUCA_Madera_0"
    },
    {
      "children": [
        6
      ],
      "matrix": [
        1.0,
        0.0,
        0.0,
        0.0,
        0.0,
        2.220446049250313e-16,
        -1.0,
        0.0,
        0.0,
        1.0,
        2.220446049250313e-16,
        0.0,
        8.199828147888184,
        -0.6237907409667969,
        -5.407068252563477,
        1.0
      ],
      "name": "Cylinder051"
    },
    {
      "mesh": 1,
      "name": "Cylinder051_Madera_0"
    },
    {
      "children": [
        8
      ],
      "matrix": [
        1.0,
        0.0,
        0.0,
        0.0,
        0.0,
        2.220446049250313e-16,
        -1.0,
        0.0,
        0.0,
        1.0,
        2.220446049250313e-16,
        0.0,
        133.48004150390625,
        -0.6237907409667969,
        -5.407068252563477,
        1.0
      ],
      "name": "Cylinder052"
    },
    {
      "mesh": 2,
      "name": "Cylinder052_Madera_0"
    },
    {
      "children": [
        10
      ],
      "matrix": [
        1.0,
        0.0,
        0.0,
        0.0,
        0.0,
        2.220446049250313e-16,
        -1.0,
        0.0,
        0.0,
        1.0,
        2.220446049250313e-16,
        0.0,
        -132.21542358398438,
        -0.6237907409667969,
        131.72085571289063,
        1.0
      ],
      "name": "Cylinder053"
    },
    {
      "mesh": 3,
      "name": "Cylinder053_Madera_0"
    },
    {
      "children": [
        12
      ],
      "matrix": [
        1.0,
        0.0,
        0.0,
        0.0,
        0.0,
        2.220446049250313e-16,
        -1.0,
        0.0,
        0.0,
        1.0,
        2.220446049250313e-16,
        0.0,
        -64.1806640625,
        -0.6237907409667969,
        135.42141723632813,
        1.0
      ],
      "name": "Cylinder054"
    },
    {
      "mesh": 4,
      "name": "Cylinder054_Madera_0"
    },
    {
      "children": [
        14
      ],
      "matrix": [
        1.0,
        0.0,
        0.0,
        0.0,
        0.0,
        2.220446049250313e-16,
        -1.0,
        0.0,
        0.0,
        1.0,
        2.220446049250313e-16,
        0.0,
        76.55216217041016,
        -0.6237907409667969,
        135.29971313476563,
        1.0
      ],
      "name": "Cylinder055"
    },
    {
      "mesh": 5,
      "name": "Cylinder055_Madera_0"
    },
    {
      "children": [
        16
      ],
      "matrix": [
        1.0,
        0.0,
        0.0,
        0.0,
        0.0,
        2.220446049250313e-16,
        -1.0,
        0.0,
        0.0,
        1.0,
        2.220446049250313e-16,
        0.0,
        -222.54681396484375,
        -0.6237907409667969,
        30.197423934936523,
        1.0
      ],
      "name": "Cylinder056"
    },
    {
      "mesh": 6,
      "name": "Cylinder056_Madera_0"
    },
    {
      "children": [
        18
      ],
      "matrix": [
        1.0,
        0.0,
        0.0,
        0.0,
        0.0,
        2.220446049250313e-16,
        -1.0,
        0.0,
        0.0,
        1.0,
        2.220446049250313e-16,
        0.0,
        -222.01528930664063,
        -0.6237907409667969,
        -35.593101501464844,
        1.0
      ],
      "name": "Cylinder057"
    },
    {
      "mesh": 7,
      "name": "Cylinder057_Madera_0"
    },
    {
      "children": [
        20
      ],
      "matrix": [
        1.0,
        0.0,
        0.0,
        0.0,
        0.0,
        2.220446049250313e-16,
        -1.0,
        0.0,
        0.0,
        1.0,
        2.220446049250313e-16,
        0.0,
        -131.70742797851563,
        -0.6237907409667969,
        -138.46859741210938,
        1.0
      ],
      "name": "Cylinder058"
    },
    {
      "mesh": 8,
      "name": "Cylinder058_Madera_0"
    },
    {
      "children": [
        22
      ],
      "matrix": [
        1.0,
        0.0,
        0.0,
        0.0,
        0.0,
        2.220446049250313e-16,
        -1.0,
        0.0,
        0.0,
        1.0,
        2.220446049250313e-16,
        0.0,
        -63.98249435424805,
        -0.6237907409667969,
        -141.51315307617188,
        1.0
      ],
      "name": "Cylinder059"
    },
    {
      "mesh": 9,
      "name": "Cylinder059_Madera_0"
    },
    {
      "children": [
        24
      ],
      "matrix": [
        1.0,
        0.0,
        0.0,
        0.0,
        0.0,
        2.220446049250313e-16,
        -1.0,
        0.0,
        0.0,
        1.0,
        2.220446049250313e-16,
        0.0,
        77.35698699951172,
        -0.6237907409667969,
        -141.15780639648438,
        1.0
      ],
      "name": "Cylinder060"
    },
    {
      "mesh": 10,
      "name": "Cylinder060_Madera_0"
    },
    {
      "children": [
        26
      ],
      "matrix": [
        1.0,
        0.0,
        0.0,
        0.0,
        0.0,
        2.220446049250313e-16,
        -1.0,
        0.0,
        0.0,
        1.0,
        2.220446049250313e-16,
        0.0,
        133.9761199951172,
        -0.6237907409667969,
        -138.45907592773438,
        1.0
      ],
      "name": "Cylinder061"
    },
    {
      "mesh": 11,
      "name": "Cylinder061_Madera_0"
    },
    {
      "children": [
        28
      ],
      "matrix": [
        1.0,
        0.0,
        0.0,
        0.0,
        0.0,
        2.220446049250313e-16,
        -1.0,
        0.0,
        0.0,
        1.0,
        2.220446049250313e-16,
        0.0,
        236.07012939453125,
        -0.6237907409667969,
        -34.513267517089844,
        1.0
      ],
      "name": "Cylinder062"
    },
    {
      "mesh": 12,
      "name": "Cylinder062_Madera_0"
    },
    {
      "children": [
        30
      ],
      "matrix": [
        1.0,
        0.0,
        0.0,
        0.0,
        0.0,
        2.220446049250313e-16,
        -1.0,
        0.0,
        0.0,
        1.0,
        2.220446049250313e-16,
        0.0,
        236.40975952148438,
        -0.6237907409667969,
        27.636266708374023,
        1.0
      ],
      "name": "Cylinder063"
    },
    {
      "mesh": 13,
      "name": "Cylinder063_Madera_0"
    },
    {
      "children": [
        32
      ],
      "matrix": [
        3.1391646349021585e-07,
        0.9999999999999507,
        1.1102230246251565e-16,
        0.0,
        -1.1102230246251565e-16,
        1.1102230246251565e-16,
        -1.0,
        0.0,
        -0.9999999999999507,
        3.1391646349021585e-07,
        1.1102230246251565e-16,
        0.0,
        -129.61581420898438,
        94.50773620605469,
        -5.407068252563477,
        1.0
      ],
      "name": "Cylinder064"
    },
    {
      "mesh": 14,
      "name": "Cylinder064_Madera_0"
    },
    {
      "children": [
        34
      ],
      "matrix": [
        3.1391646349021585e-07,
        0.9999999999999507,
        1.1102230246251565e-16,
        0.0,
        -1.1102230246251565e-16,
        1.1102230246251565e-16,
        -1.0,
        0.0,
        -0.9999999999999507,
        3.1391646349021585e-07,
        1.1102230246251565e-16,
        0.0,
        10.579157829284668,
        94.50773620605469,
        -5.407068252563477,
        1.0
      ],
      "name": "Cylinder065"
    },
    {
      "mesh": 15,
      "name": "Cylinder065_Madera_0"
    },
    {
      "children": [
        36
      ],
      "matrix": [
        4.479130715218105e-07,
        -5.551115123125783e-17,
        -0.9999999999998996,
        0.0,
        0.6225146202189453,
        -0.7826081699123673,
        2.788324356406413e-07,
        0.0,
        -0.7826081699122887,
        -0.6225146202190077,
        -3.505404291281877e-07,
        0.0,
        -131.55853271484375,
        181.17308044433594,
        -5.407068252563477,
        1.0
      ],
      "name": "Cylinder066"
    },
    {
      "mesh": 16,
      "name": "Cylinder066_Madera_0"
    },
    {
      "children": [
        38
      ],
      "matrix": [
        1.0,
        0.0,
        0.0,
        0.0,
        0.0,
        2.220446049250313e-16,
        -1.0,
        0.0,
        0.0,
        1.0,
        2.220446049250313e-16,
        0.0,
        207.42111206054688,
        -0.6237907409667969,
        -92.42537689208984,
        1.0
      ],
      "name": "Cylinder067"
    },
    {
      "mesh": 17,
      "name": "Cylinder067_Madera_0"
    },
    {
      "children": [
        40
      ],
      "matrix": [
        1.0,
        0.0,
        0.0,
        0.0,
        0.0,
        2.220446049250313e-16,
        -1.0,
        0.0,
        0.0,
        1.0,
        2.220446049250313e-16,
        0.0,
        -190.12380981445313,
        -0.6237907409667969,
        -96.78658294677734,
        1.0
      ],
      "name": "Cylinder068"
    },
    {
      "mesh": 18,
      "name": "Cylinder068_Madera_0"
    },
    {
      "children": [
        42
      ],
      "matrix": [
        1.0,
        0.0,
        0.0,
        0.0,
        0.0,
        2.220446049250313e-16,
        -1.0,
        0.0,
        0.0,
        1.0,
        2.220446049250313e-16,
        0.0,
        -191.52969360351563,
        -0.6237907409667969,
        89.06632232666016,
        1.0
      ],
      "name": "Cylinder069"
    },
    {
      "mesh": 19,
      "name": "Cylinder069_Madera_0"
    },
    {
      "children": [
        44
      ],
      "matrix": [
        3.1391646349021585e-07,
        0.9999999999999507,
        1.1102230246251565e-16,
        0.0,
        -1.1102230246251565e-16,
        1.1102230246251565e-16,
        -1.0,
        0.0,
        -0.9999999999999507,
        3.1391646349021585e-07,
        1.1102230246251565e-16,
        0.0,
        -138.17816162109375,
        176.52684020996094,
        -5.407068252563477,
        1.0
      ],
      "name": "Cylinder070"
    },
    {
      "mesh": 20,
      "name": "Cylinder070_Madera_0"
    },
    {
      "children": [
        46
      ],
      "matrix": [
        4.479130715218105e-07,
        -5.551115123125783e-17,
        -0.9999999999998996,
        0.0,
        0.6225146202189453,
        -0.7826081699123673,
        2.788324356406413e-07,
        0.0,
        -0.7826081699122887,
        -0.6225146202190077,
        -3.505404291281877e-07,
        0.0,
        -64.49128723144531,
        181.17308044433594,
        -5.407068252563477,
        1.0
      ],
      "name": "Cylinder071"
    },
    {
      "mesh": 21,
      "name": "Cylinder071_Madera_0"
    },
    {
      "children": [
        48
      ],
      "matrix": [
        4.479130716328328e-07,
        0.0,
        -0.9999999999998997,
        0.0,
        0.6167610989859478,
        -0.7871503965428523,
        2.7625535836683923e-07,
        0.0,
        -0.7871503965427734,
        -0.6167610989860096,
        -3.525749521227084e-07,
        0.0,
        76.3076400756836,
        181.17308044433594,
        -5.407068252563477,
        1.0
      ],
      "name": "Cylinder072"
    },
    {
      "mesh": 22,
      "name": "Cylinder072_Madera_0"
    },
    {
      "children": [
        50
      ],
      "matrix": [
        9.625970101012626e-07,
        0.0,
        0.9999999999995368,
        0.0,
        -0.6366168151640288,
        0.7711802841424522,
        6.128054427789742e-07,
        0.0,
        -0.7711802841420949,
        -0.6366168151643237,
        7.423358356906107e-07,
        0.0,
        -131.72036743164063,
        181.17308044433594,
        -5.407068252563477,
        1.0
      ],
      "name": "Cylinder073"
    },
    {
      "mesh": 23,
      "name": "Cylinder073_Madera_0"
    },
    {
      "children": [
        52
      ],
      "matrix": [
        5.039016026664456e-07,
        5.551115123125783e-17,
        0.9999999999998731,
        0.0,
        -0.6263318121121602,
        0.7795565798171407,
        3.156096038958722e-07,
        0.0,
        -0.7795565798170417,
        -0.6263318121122398,
        3.928198100133784e-07,
        0.0,
        -64.03684997558594,
        181.17308044433594,
        -5.407068252563477,
        1.0
      ],
      "name": "Cylinder074"
    },
    {
      "mesh": 24,
      "name": "Cylinder074_Madera_0"
    },
    {
      "children": [
        54
      ],
      "matrix": [
        5.230384735321891e-07,
        -5.551115123125783e-17,
        0.9999999999998632,
        0.0,
        -0.627555686311408,
        0.7785716797945517,
        3.2823576828766576e-07,
        0.0,
        -0.7785716797944453,
        -0.6275556863114939,
        4.072229428109253e-07,
        0.0,
        76.65479278564453,
        181.17308044433594,
        -5.407068252563477,
        1.0
      ],
      "name": "Cylinder075"
    },
    {
      "mesh": 25,
      "name": "Cylinder075_Madera_0"
    },
    {
      "children": [
        56
      ],
      "matrix": [
        -0.0011827176370844406,
        0.001424788983154679,
        0.9999982855762026,
        0.0,
        -0.6387666751382688,
        0.7693982752048265,
        -0.0018517139734602894,
        0.0,
        -0.7693995944317831,
        -0.6387677700762552,
        1.2681151628779475e-07,
        0.0,
        133.9415283203125,
        181.17308044433594,
        -5.407068252563477,
        1.0
      ],
      "name": "Cylinder076"
    },
    {
      "mesh": 26,
      "name": "Cylinder076_Madera_0"
    },
    {
      "children": [
        58
      ],
      "matrix": [
        1.0,
        0.0,
        0.0,
        0.0,
        0.0,
        2.220446049250313e-16,
        -1.0,
        0.0,
        0.0,
        1.0,
        2.220446049250313e-16,
        0.0,
        8.484940528869629,
        -0.6237907409667969,
        -141.44467163085938,
        1.0
      ],
      "name": "Cylinder077"
    },
    {
      "mesh": 27,
      "name": "Cylinder077_Madera_0"
    },
    {
      "children": [
        60
      ],
      "matrix": [
        5.230384735321891e-07,
        -5.551115123125783e-17,
        0.9999999999998632,
        0.0,
        -0.627555686311408,
        0.7785716797945517,
        3.2823576828766576e-07,
        0.0,
        -0.7785716797944453,
        -0.6275556863114939,
        4.072229428109253e-07,
        0.0,
        8.074755668640137,
        181.17308044433594,
        -5.407068252563477,
        1.0
      ],
      "name": "Cylinder078"
    },
    {
      "mesh": 28,
      "name": "Cylinder078_Madera_0"
    },
    {
      "children": [
        62
      ],
      "matrix": [
        4.479130715218105e-07,
        -5.551115123125783e-17,
        -0.9999999999998996,
        0.0,
        0.6225146202189453,
        -0.7826081699123673,
        2.788324356406413e-07,
        0.0,
        -0.7826081699122887,
        -0.6225146202190077,
        -3.505404291281877e-07,
        0.0,
        7.869158744812012,
        181.17308044433594,
        -5.407068252563477,
        1.0
      ],
      "name": "Cylinder079"
    },
    {
      "mesh": 29,
      "name": "Cylinder079_Madera_0"
    },
    {
      "children": [
        64
      ],
      "matrix": [
        1.0,
        0.0,
        0.0,
        0.0,
        0.0,
        2.220446049250313e-16,
        -1.0,
        0.0,
        0.0,
        1.0,
        2.220446049250313e-16,
        0.0,
        8.04782772064209,
        -0.6237907409667969,
        135.29971313476563,
        1.0
      ],
      "name": "Cylinder080"
    },
    {
      "mesh": 30,
      "name": "Cylinder080_Madera_0"
    },
    {
      "children": [
        66
      ],
      "matrix": [
        -1.6391277335436882e-07,
        3.3397227525936574e-06,
        -0.9999999999944098,
        0.0,
        -0.014798586041501962,
        -0.9998904949243381,
        -3.3369313587423496e-06,
        0.0,
        -0.9998904949298926,
        0.014798586040872266,
        2.1331799826551645e-07,
        0.0,
        138.575439453125,
        149.3115997314453,
        -44.571128845214844,
        1.0
      ],
      "name": "Cylinder081"
    },
    {
      "mesh": 31,
      "name": "Cylinder081_Madera_0"
    },
    {
      "children": [
        68
      ],
      "matrix": [
        -0.629724673319771,
        0.7451786303538328,
        0.21944394426890335,
        0.0,
        -0.141642113110254,
        0.16761013236123035,
        -0.9756251100312624,
        0.0,
        -0.7637960117766849,
        -0.6454577076724987,
        4.400016623273828e-07,
        0.0,
        138.16928100585938,
        156.43101501464844,
        -13.112512588500977,
        1.0
      ],
      "name": "Cylinder082"
    },
    {
      "mesh": 32,
      "name": "Cylinder082_Madera_0"
    },
    {
      "children": [
        70
      ],
      "matrix": [
        -0.48966303851233706,
        0.5438254253125233,
        0.6815306416431463,
        0.0,
        -0.4560331598314624,
        0.5064758361784452,
        -0.731789576655391,
        0.0,
        -0.7431445793713342,
        -0.6691308796872237,
        -6.977425526244474e-08,
        0.0,
        138.16928100585938,
        156.43101501464844,
        -27.959070205688477,
        1.0
      ],
      "name": "Cylinder083"
    },
    {
      "mesh": 33,
      "name": "Cylinder083_Madera_0"
    },
    {
      "children": [
        72
      ],
      "matrix": [
        -0.6285754791785982,
        0.7464574766990062,
        -0.21838979476053438,
        0.0,
        0.14066965320326158,
        -0.1670513427765168,
        -0.975861618030055,
        0.0,
        -0.7649215094655593,
        -0.6441235008573398,
        4.634549461979276e-07,
        0.0,
        138.16928100585938,
        156.43101501464844,
        6.083898544311523,
        1.0
      ],
      "name": "Cylinder084"
    },
    {
      "mesh": 34,
      "name": "Cylinder084_Madera_0"
    },
    {
      "children": [
        74
      ],
      "matrix": [
        -0.517549343797366,
        0.5649988195471807,
        -0.642587745483221,
        0.0,
        0.43404506174352153,
        -0.47383952454541145,
        -0.766212104677707,
        0.0,
        -0.7373924064641424,
        -0.6754646096494407,
        3.874783605084531e-07,
        0.0,
        138.16928100585938,
        156.43101501464844,
        20.372961044311523,
        1.0
      ],
      "name": "Cylinder085"
    },
    {
      "mesh": 35,
      "name": "Cylinder085_Madera_0"
    },
    {
      "children": [
        76
      ],
      "matrix": [
        1.0,
        0.0,
        0.0,
        0.0,
        0.0,
        2.220446049250313e-16,
        -1.0,
        0.0,
        0.0,
        1.0,
        2.220446049250313e-16,
        0.0,
        210.33407592773438,
        -0.6237907409667969,
        80.12552642822266,
        1.0
      ],
      "name": "Cylinder086"
    },
    {
      "mesh": 36,
      "name": "Cylinder086_Madera_0"
    },
    {
      "children": [
        78
      ],
      "matrix": [
        1.0,
        0.0,
        0.0,
        0.0,
        0.0,
        2.220446049250313e-16,
        -1.0,
        0.0,
        0.0,
        1.0,
        2.220446049250313e-16,
        0.0,
        135.55596923828125,
        -0.6237907409667969,
        128.32534790039063,
        1.0
      ],
      "name": "Cylinder087"
    },
    {
      "mesh": 37,
      "name": "Cylinder087_Madera_0"
    },
    {
      "children": [
        80
      ],
      "matrix": [
        -0.007885481448258735,
        0.00951132670183552,
        -0.9999236740105217,
        0.0,
        0.6381816886748729,
        -0.7697866497197916,
        -0.012355005190856805,
        0.0,
        -0.7698454074828378,
        -0.6382304039902436,
        1.8380936694928351e-07,
        0.0,
        133.9415283203125,
        181.17308044433594,
        -5.407068252563477,
        1.0
      ],
      "name": "Cylinder088"
    },
    {
      "mesh": 38,
      "name": "Cylinder088_Madera_0"
    },
    {
      "children": [
        82
      ],
      "matrix": [
        0.0001490805237213122,
        0.01007491774695118,
        0.9999492356151835,
        0.0,
        0.0147977477177,
        0.9998397373928852,
        -0.01007602067333712,
        0.0,
        -0.9998904962232019,
        0.01479849865757945,
        -2.9459408024123945e-08,
        0.0,
        -135.73587036132813,
        149.3115997314453,
        34.561927795410156,
        1.0
      ],
      "name": "Cylinder089"
    },
    {
      "mesh": 39,
      "name": "Cylinder089_Madera_0"
    },
    {
      "children": [
        84
      ],
      "matrix": [
        0.6503522222409086,
        -0.699862452398328,
        -0.2953549301252817,
        0.0,
        0.20105438949997578,
        -0.2163600407009949,
        0.9553875994854947,
        0.0,
        -0.7325429130700153,
        -0.6807208535889452,
        1.8482687613730064e-07,
        0.0,
        -135.01254272460938,
        156.43101501464844,
        3.1090450286865234,
        1.0
      ],
      "name": "Cylinder090"
    },
    {
      "mesh": 40,
      "name": "Cylinder090_Madera_0"
    },
    {
      "children": [
        86
      ],
      "matrix": [
        0.41433034210477293,
        -0.46016080146238403,
        -0.7852276131217231,
        0.0,
        0.5254199771060623,
        -0.5835377040661505,
        0.6192072315397092,
        0.0,
        -0.7431448144670103,
        -0.6691306185870607,
        3.0121271099581293e-07,
        0.0,
        -135.16220092773438,
        156.43101501464844,
        17.954870223999023,
        1.0
      ],
      "name": "Cylinder091"
    },
    {
      "mesh": 41,
      "name": "Cylinder091_Madera_0"
    },
    {
      "children": [
        88
      ],
      "matrix": [
        0.6701890481782992,
        -0.7062319750215591,
        0.22821708340747232,
        0.0,
        -0.15709396396121805,
        0.1655431171813787,
        0.9736102725633208,
        0.0,
        -0.7253744730749883,
        -0.6883544681419741,
        4.0370396026112587e-07,
        0.0,
        -134.81900024414063,
        156.43101501464844,
        -16.086511611938477,
        1.0
      ],
      "name": "Cylinder092"
    },
    {
      "mesh": 42,
      "name": "Cylinder092_Madera_0"
    },
    {
      "children": [
        90
      ],
      "matrix": [
        0.44710502960698806,
        -0.45513168872799875,
        0.7700339203020438,
        0.0,
        -0.539630125823561,
        0.549319183826436,
        0.6380029479429591,
        0.0,
        -0.71336976372971,
        -0.7007878282303842,
        5.994938254705318e-07,
        0.0,
        -134.67495727539063,
        156.43101501464844,
        -30.374841690063477,
        1.0
      ],
      "name": "Cylinder093"
    },
    {
      "mesh": 43,
      "name": "Cylinder093_Madera_0"
    },
    {
      "children": [
        92
      ],
      "matrix": [
        1.0,
        0.0,
        0.0,
        0.0,
        0.0,
        2.220446049250313e-16,
        -1.0,
        0.0,
        0.0,
        1.0,
        2.220446049250313e-16,
        0.0,
        164.91806030273438,
        67.48786926269531,
        119.06327056884766,
        1.0
      ],
      "name": "Line023"
    },
    {
      "mesh": 44,
      "name": "Line023_Madera_0"
    },
    {
      "children": [
        94,
        95
      ],
      "matrix": [
        1.0,
        0.0,
        0.0,
        0.0,
        0.0,
        2.220446049250313e-16,
        -1.0,
        0.0,
        0.0,
        1.0,
        2.220446049250313e-16,
        0.0,
        180.9938507080078,
        0.0,
        308.0748596191406,
        1.0
      ],
      "name": "RUCA_CUBIERTA"
    },
    {
      "mesh": 45,
      "name": "RUCA_CUBIERTA_SIDE_0"
    },
    {
      "mesh": 46,
      "name": "RUCA_CUBIERTA_TOP_0"
    },
    {
      "children": [
        97
      ],
      "matrix": [
        1.0,
        0.0,
        0.0,
        0.0,
        0.0,
        2.220446049250313e-16,
        -1.0,
        0.0,
        0.0,
        1.0,
        2.220446049250313e-16,
        0.0,
        6.075909614562988,
        6.593563079833984,
        -3.4934940338134766,
        1.0
      ],
      "name": "RUCA_TERRENO"
    },
    {
      "mesh": 47,
      "name": "RUCA_TERRENO_TIERRA_0"
    }
  ],
  "samplers": [
    {
      "magFilter": 9729,
      "minFilter": 9987,
      "wrapS": 10497,
      "wrapT": 10497
    }
  ],
  "scene": 0,
  "scenes": [
    {
      "name": "Sketchfab_Scene",
      "nodes": [
        0
      ]
    }
  ],
  "textures": [
    {
      "sampler": 0,
      "source": 0
    },
    {
      "sampler": 0,
      "source": 1
    },
    {
      "sampler": 0,
      "source": 2
    },
    {
      "sampler": 0,
      "source": 3
    }
  ]
}
