{"asset":{"version":"2.0","generator":"babylon.js glTF exporter for 3ds max 2019 v1.3.33"},"scene":0,"scenes":[{"nodes":[0],"extensions":{}}],"nodes":[{"children":[1,2],"translation":[0.0,0.0,0.0],"rotation":[0.0,0.0,0.0,1.0],"scale":[0.01,0.01,0.01],"name":"root"},{"mesh":0,"translation":[0.0,0.0,0.0],"rotation":[0.0,0.0,0.0,1.0],"scale":[1.0,1.0,1.0],"name":"DECO009"},{"translation":[0.0,0.0,0.0],"rotation":[0.0,0.0,0.0,1.0],"scale":[1.0,1.0,1.0],"name":"Default light"}],"meshes":[{"primitives":[{"attributes":{"POSITION":1,"NORMAL":2,"TEXCOORD_0":3},"indices":0,"mode":4,"material":0}],"name":"DECO009"}],"accessors":[{"bufferView":0,"componentType":5123,"count":2796,"type":"SCALAR","name":"accessorIndices"},{"bufferView":1,"componentType":5126,"count":2796,"max":[10.8721313,32.93447,10.7069693],"min":[-10.8721313,-0.003168106,-10.7069693],"type":"VEC3","name":"accessorPositions"},{"bufferView":1,"byteOffset":33552,"componentType":5126,"count":2796,"type":"VEC3","name":"accessorNormals"},{"bufferView":2,"componentType":5126,"count":2796,"type":"VEC2","name":"accessorUVs"}],"bufferViews":[{"buffer":0,"byteLength":5592,"name":"bufferViewScalar"},{"buffer":0,"byteOffset":5592,"byteLength":67104,"byteStride":12,"name":"bufferViewFloatVec3"},{"buffer":0,"byteOffset":72696,"byteLength":22368,"byteStride":8,"name":"bufferViewFloatVec2"}],"buffers":[{"uri":"DECO009.bin","byteLength":95064}],"materials":[{"pbrMetallicRoughness":{"baseColorFactor":[1.0,1.0,1.0,1.0],"baseColorTexture":{"index":0,"texCoord":0},"metallicFactor":0.0,"roughnessFactor":0.9},"emissiveFactor":[0.0,0.0,0.0],"alphaMode":"OPAQUE","name":"objets_bureau"}],"textures":[{"sampler":0,"source":0,"name":"Objets_Bureau_color.jpg"}],"images":[{"uri":"Objets_Bureau_color.jpg"}],"samplers":[{"magFilter":9729,"minFilter":9987,"wrapS":10497,"wrapT":10497}]}