{
  "accessors": [
    {
      "bufferView": 2,
      "componentType": 5126,
      "count": 1566,
      "max": [
        11.359450340270996,
        41.72978973388672,
        11.66707992553711
      ],
      "min": [
        -10.63782024383545,
        -2.9847280979156494,
        -19.39362907409668
      ],
      "type": "VEC3"
    },
    {
      "bufferView": 2,
      "byteOffset": 18792,
      "componentType": 5126,
      "count": 1566,
      "max": [
        0.9999971985816956,
        0.9999263286590576,
        0.9999734163284302
      ],
      "min": [
        -0.9999949932098389,
        -0.9998871088027954,
        -0.9999797940254211
      ],
      "type": "VEC3"
    },
    {
      "bufferView": 1,
      "componentType": 5126,
      "count": 1566,
      "max": [
        0.9845954179763794,
        0.9994999766349792
      ],
      "min": [
        0.0005000000237487257,
        0.0005000000237487257
      ],
      "type": "VEC2"
    },
    {
      "bufferView": 0,
      "componentType": 5125,
      "count": 7002,
      "type": "SCALAR"
    }
  ],
  "asset": {
    "extras": {
      "author": "borisquezadaa (https://sketchfab.com/borisquezadaa)",
      "license": "CC-BY-4.0 (http://creativecommons.org/licenses/by/4.0/)",
      "source": "https://sketchfab.com/3d-models/wanco-mapuche-b918f23394374ecca1a4dbb8ba73df9d",
      "title": "Wanco mapuche"
    },
    "generator": "Sketchfab-12.67.0",
    "version": "2.0"
  },
  "bufferViews": [
    {
      "buffer": 0,
      "byteLength": 28008,
      "name": "floatBufferViews",
      "target": 34963
    },
    {
      "buffer": 0,
      "byteLength": 12528,
      "byteOffset": 28008,
      "byteStride": 8,
      "name": "floatBufferViews",
      "target": 34962
    },
    {
      "buffer": 0,
      "byteLength": 37584,
      "byteOffset": 40536,
      "byteStride": 12,
      "name": "floatBufferViews",
      "target": 34962
    }
  ],
  "buffers": [
    {
      "byteLength": 78120,
      "uri": "scene.bin"
    }
  ],
  "images": [
    {
      "uri": "textures/Material__49_baseColor.jpeg"
    }
  ],
  "materials": [
    {
      "doubleSided": true,
      "name": "Material__49",
      "pbrMetallicRoughness": {
        "baseColorTexture": {
          "index": 0
        },
        "metallicFactor": 0.0,
        "roughnessFactor": 0.4809741248097412
      }
    }
  ],
  "meshes": [
    {
      "name": "Material__49_1",
      "primitives": [
        {
          "attributes": {
            "NORMAL": 1,
            "POSITION": 0,
            "TEXCOORD_0": 2
          },
          "indices": 3,
          "material": 0,
          "mode": 4
        }
      ]
    }
  ],
  "nodes": [
    {
      "children": [
        1
      ],
      "matrix": [
        1.0,
        0.0,
        0.0,
        0.0,
        0.0,
        2.220446049250313e-16,
        -1.0,
        0.0,
        0.0,
        1.0,
        2.220446049250313e-16,
        0.0,
        0.0,
        0.0,
        0.0,
        1.0
      ],
      "name": "Sketchfab_model"
    },
    {
      "children": [
        2,
        5
      ],
      "name": "Collada visual scene group"
    },
    {
      "children": [
        3
      ],
      "name": "WANKU_Retopo_Retopo"
    },
    {
      "children": [
        4
      ],
      "matrix": [
        1.0,
        0.0,
        0.0,
        0.0,
        0.0,
        1.0,
        0.0,
        0.0,
        0.0,
        0.0,
        1.0,
        0.0,
        -0.360817,
        -19.37253,
        19.4208,
        1.0
      ],
      "name": "Object_3"
    },
    {
      "mesh": 0,
      "name": "Material__49_1"
    },
    {
      "children": [
        6
      ],
      "name": "EnvironmentAmbientLight"
    },
    {
      "name": "EnvironmentAmbientLight"
    }
  ],
  "samplers": [
    {
      "magFilter": 9729,
      "minFilter": 9987,
      "wrapS": 10497,
      "wrapT": 10497
    }
  ],
  "scene": 0,
  "scenes": [
    {
      "name": "Sketchfab_Scene",
      "nodes": [
        0
      ]
    }
  ],
  "textures": [
    {
      "sampler": 0,
      "source": 0
    }
  ]
}
