{
  "accessors": [
    {
      "bufferView": 2,
      "componentType": 5126,
      "count": 2433,
      "max": [
        59.08230972290039,
        59.082305908203125,
        5.0
      ],
      "min": [
        -59.08230972290039,
        -59.08230972290039,
        0.0
      ],
      "type": "VEC3"
    },
    {
      "bufferView": 2,
      "byteOffset": 29196,
      "componentType": 5126,
      "count": 2433,
      "max": [
        1.0,
        1.0,
        1.0
      ],
      "min": [
        -1.0,
        -1.0,
        -1.0
      ],
      "type": "VEC3"
    },
    {
      "bufferView": 1,
      "componentType": 5126,
      "count": 2433,
      "max": [
        0.949999988079071,
        1.0000001192092896
      ],
      "min": [
        -0.050000011920928955,
        0.0
      ],
      "type": "VEC2"
    },
    {
      "bufferView": 0,
      "componentType": 5125,
      "count": 14400,
      "type": "SCALAR"
    },
    {
      "bufferView": 2,
      "byteOffset": 58392,
      "componentType": 5126,
      "count": 24945,
      "max": [
        70.67802429199219,
        45.14659118652344,
        57.98354721069336
      ],
      "min": [
        -58.78779220581055,
        -19.92405128479004,
        -36.12623596191406
      ],
      "type": "VEC3"
    },
    {
      "bufferView": 2,
      "byteOffset": 357732,
      "componentType": 5126,
      "count": 24945,
      "max": [
        0.968055248260498,
        0.999763011932373,
        1.0
      ],
      "min": [
        -0.999858558177948,
        -0.999786376953125,
        -0.9997730851173401
      ],
      "type": "VEC3"
    },
    {
      "bufferView": 1,
      "byteOffset": 19464,
      "componentType": 5126,
      "count": 24945,
      "max": [
        1.0,
        1.0
      ],
      "min": [
        0.0,
        0.0
      ],
      "type": "VEC2"
    },
    {
      "bufferView": 0,
      "byteOffset": 57600,
      "componentType": 5125,
      "count": 183024,
      "type": "SCALAR"
    },
    {
      "bufferView": 2,
      "byteOffset": 657072,
      "componentType": 5126,
      "count": 13611,
      "max": [
        76.27387237548828,
        50.63547134399414,
        57.754268646240234
      ],
      "min": [
        -48.15549087524414,
        -19.9178466796875,
        -36.12623596191406
      ],
      "type": "VEC3"
    },
    {
      "bufferView": 2,
      "byteOffset": 820404,
      "componentType": 5126,
      "count": 13611,
      "max": [
        0.8701449632644653,
        0.9998034238815308,
        1.0
      ],
      "min": [
        -0.9844326376914978,
        -0.9999826550483704,
        -0.9999857544898987
      ],
      "type": "VEC3"
    },
    {
      "bufferView": 1,
      "byteOffset": 219024,
      "componentType": 5126,
      "count": 13611,
      "max": [
        1.0,
        1.0
      ],
      "min": [
        0.0,
        0.0
      ],
      "type": "VEC2"
    },
    {
      "bufferView": 0,
      "byteOffset": 789696,
      "componentType": 5125,
      "count": 78624,
      "type": "SCALAR"
    },
    {
      "bufferView": 2,
      "byteOffset": 983736,
      "componentType": 5126,
      "count": 17409,
      "max": [
        70.26972961425781,
        50.397056579589844,
        57.750770568847656
      ],
      "min": [
        -49.83814239501953,
        -19.935821533203125,
        -36.12623596191406
      ],
      "type": "VEC3"
    },
    {
      "bufferView": 2,
      "byteOffset": 1192644,
      "componentType": 5126,
      "count": 17409,
      "max": [
        0.9138739705085754,
        0.9998114109039307,
        1.0
      ],
      "min": [
        -0.9833936095237732,
        -0.9999618530273438,
        -0.9999799132347107
      ],
      "type": "VEC3"
    },
    {
      "bufferView": 1,
      "byteOffset": 327912,
      "componentType": 5126,
      "count": 17409,
      "max": [
        1.0,
        1.0
      ],
      "min": [
        0.0,
        0.0
      ],
      "type": "VEC2"
    },
    {
      "bufferView": 0,
      "byteOffset": 1104192,
      "componentType": 5125,
      "count": 101016,
      "type": "SCALAR"
    },
    {
      "bufferView": 2,
      "byteOffset": 1401552,
      "componentType": 5126,
      "count": 1188,
      "max": [
        22.03891372680664,
        24.141143798828125,
        3.972130089446467e-15
      ],
      "min": [
        -27.046682357788086,
        -24.39657211303711,
        -35.0
      ],
      "type": "VEC3"
    },
    {
      "bufferView": 2,
      "byteOffset": 1415808,
      "componentType": 5126,
      "count": 1188,
      "max": [
        0.9994366765022278,
        0.9986073970794678,
        1.0
      ],
      "min": [
        -0.994513213634491,
        -0.9965699315071106,
        -0.3707032799720764
      ],
      "type": "VEC3"
    },
    {
      "bufferView": 1,
      "byteOffset": 467184,
      "componentType": 5126,
      "count": 1188,
      "max": [
        1.0,
        1.0
      ],
      "min": [
        0.0,
        0.0
      ],
      "type": "VEC2"
    },
    {
      "bufferView": 0,
      "byteOffset": 1508256,
      "componentType": 5125,
      "count": 6108,
      "type": "SCALAR"
    },
    {
      "bufferView": 2,
      "byteOffset": 1430064,
      "componentType": 5126,
      "count": 2433,
      "max": [
        21.663515090942383,
        21.663515090942383,
        5.0
      ],
      "min": [
        -21.663515090942383,
        -21.663515090942383,
        0.0
      ],
      "type": "VEC3"
    },
    {
      "bufferView": 2,
      "byteOffset": 1459260,
      "componentType": 5126,
      "count": 2433,
      "max": [
        1.0,
        1.0,
        1.0
      ],
      "min": [
        -1.0,
        -1.0,
        -1.0
      ],
      "type": "VEC3"
    },
    {
      "bufferView": 1,
      "byteOffset": 476688,
      "componentType": 5126,
      "count": 2433,
      "max": [
        0.949999988079071,
        1.0000001192092896
      ],
      "min": [
        -0.050000011920928955,
        0.0
      ],
      "type": "VEC2"
    },
    {
      "bufferView": 0,
      "byteOffset": 1532688,
      "componentType": 5125,
      "count": 14400,
      "type": "SCALAR"
    },
    {
      "bufferView": 2,
      "byteOffset": 1488456,
      "componentType": 5126,
      "count": 1188,
      "max": [
        22.03891372680664,
        24.141143798828125,
        3.972130089446467e-15
      ],
      "min": [
        -27.046682357788086,
        -24.39657211303711,
        -35.0
      ],
      "type": "VEC3"
    },
    {
      "bufferView": 2,
      "byteOffset": 1502712,
      "componentType": 5126,
      "count": 1188,
      "max": [
        0.9994366765022278,
        0.9986073970794678,
        1.0
      ],
      "min": [
        -0.994513213634491,
        -0.9965699315071106,
        -0.3707032799720764
      ],
      "type": "VEC3"
    },
    {
      "bufferView": 1,
      "byteOffset": 496152,
      "componentType": 5126,
      "count": 1188,
      "max": [
        1.0,
        1.0
      ],
      "min": [
        0.0,
        0.0
      ],
      "type": "VEC2"
    },
    {
      "bufferView": 0,
      "byteOffset": 1590288,
      "componentType": 5125,
      "count": 6108,
      "type": "SCALAR"
    },
    {
      "bufferView": 2,
      "byteOffset": 1516968,
      "componentType": 5126,
      "count": 2433,
      "max": [
        21.663515090942383,
        21.663515090942383,
        5.0
      ],
      "min": [
        -21.663515090942383,
        -21.663515090942383,
        0.0
      ],
      "type": "VEC3"
    },
    {
      "bufferView": 2,
      "byteOffset": 1546164,
      "componentType": 5126,
      "count": 2433,
      "max": [
        1.0,
        1.0,
        1.0
      ],
      "min": [
        -1.0,
        -1.0,
        -1.0
      ],
      "type": "VEC3"
    },
    {
      "bufferView": 1,
      "byteOffset": 505656,
      "componentType": 5126,
      "count": 2433,
      "max": [
        0.949999988079071,
        1.0000001192092896
      ],
      "min": [
        -0.050000011920928955,
        0.0
      ],
      "type": "VEC2"
    },
    {
      "bufferView": 0,
      "byteOffset": 1614720,
      "componentType": 5125,
      "count": 14400,
      "type": "SCALAR"
    },
    {
      "bufferView": 2,
      "byteOffset": 1575360,
      "componentType": 5126,
      "count": 1188,
      "max": [
        22.03891372680664,
        24.141143798828125,
        3.972130089446467e-15
      ],
      "min": [
        -27.046682357788086,
        -24.39657211303711,
        -35.0
      ],
      "type": "VEC3"
    },
    {
      "bufferView": 2,
      "byteOffset": 1589616,
      "componentType": 5126,
      "count": 1188,
      "max": [
        0.9994366765022278,
        0.9986073970794678,
        1.0
      ],
      "min": [
        -0.994513213634491,
        -0.9965699315071106,
        -0.3707032799720764
      ],
      "type": "VEC3"
    },
    {
      "bufferView": 1,
      "byteOffset": 525120,
      "componentType": 5126,
      "count": 1188,
      "max": [
        1.0,
        1.0
      ],
      "min": [
        0.0,
        0.0
      ],
      "type": "VEC2"
    },
    {
      "bufferView": 0,
      "byteOffset": 1672320,
      "componentType": 5125,
      "count": 6108,
      "type": "SCALAR"
    },
    {
      "bufferView": 2,
      "byteOffset": 1603872,
      "componentType": 5126,
      "count": 2433,
      "max": [
        21.663515090942383,
        21.663515090942383,
        5.0
      ],
      "min": [
        -21.663515090942383,
        -21.663515090942383,
        0.0
      ],
      "type": "VEC3"
    },
    {
      "bufferView": 2,
      "byteOffset": 1633068,
      "componentType": 5126,
      "count": 2433,
      "max": [
        1.0,
        1.0,
        1.0
      ],
      "min": [
        -1.0,
        -1.0,
        -1.0
      ],
      "type": "VEC3"
    },
    {
      "bufferView": 1,
      "byteOffset": 534624,
      "componentType": 5126,
      "count": 2433,
      "max": [
        0.949999988079071,
        1.0000001192092896
      ],
      "min": [
        -0.050000011920928955,
        0.0
      ],
      "type": "VEC2"
    },
    {
      "bufferView": 0,
      "byteOffset": 1696752,
      "componentType": 5125,
      "count": 14400,
      "type": "SCALAR"
    },
    {
      "bufferView": 2,
      "byteOffset": 1662264,
      "componentType": 5126,
      "count": 1188,
      "max": [
        22.03891372680664,
        24.141143798828125,
        3.972130089446467e-15
      ],
      "min": [
        -27.046682357788086,
        -24.39657211303711,
        -35.0
      ],
      "type": "VEC3"
    },
    {
      "bufferView": 2,
      "byteOffset": 1676520,
      "componentType": 5126,
      "count": 1188,
      "max": [
        0.9994366765022278,
        0.9986073970794678,
        1.0
      ],
      "min": [
        -0.994513213634491,
        -0.9965699315071106,
        -0.3707032799720764
      ],
      "type": "VEC3"
    },
    {
      "bufferView": 1,
      "byteOffset": 554088,
      "componentType": 5126,
      "count": 1188,
      "max": [
        1.0,
        1.0
      ],
      "min": [
        0.0,
        0.0
      ],
      "type": "VEC2"
    },
    {
      "bufferView": 0,
      "byteOffset": 1754352,
      "componentType": 5125,
      "count": 6108,
      "type": "SCALAR"
    },
    {
      "bufferView": 2,
      "byteOffset": 1690776,
      "componentType": 5126,
      "count": 2433,
      "max": [
        21.663515090942383,
        21.663515090942383,
        5.0
      ],
      "min": [
        -21.663515090942383,
        -21.663515090942383,
        0.0
      ],
      "type": "VEC3"
    },
    {
      "bufferView": 2,
      "byteOffset": 1719972,
      "componentType": 5126,
      "count": 2433,
      "max": [
        1.0,
        1.0,
        1.0
      ],
      "min": [
        -1.0,
        -1.0,
        -1.0
      ],
      "type": "VEC3"
    },
    {
      "bufferView": 1,
      "byteOffset": 563592,
      "componentType": 5126,
      "count": 2433,
      "max": [
        0.949999988079071,
        1.0000001192092896
      ],
      "min": [
        -0.050000011920928955,
        0.0
      ],
      "type": "VEC2"
    },
    {
      "bufferView": 0,
      "byteOffset": 1778784,
      "componentType": 5125,
      "count": 14400,
      "type": "SCALAR"
    }
  ],
  "asset": {
    "extras": {
      "author": "naufaltaufiq66 (https://sketchfab.com/naufaltaufiq66)",
      "license": "CC-BY-4.0 (http://creativecommons.org/licenses/by/4.0/)",
      "source": "https://sketchfab.com/3d-models/wooden-table-and-chair-dc185735ba3641b8880a203caf4a9897",
      "title": "Wooden Table and Chair"
    },
    "generator": "Sketchfab-14.35.0",
    "version": "2.0"
  },
  "bufferViews": [
    {
      "buffer": 0,
      "byteLength": 1836384,
      "name": "floatBufferViews",
      "target": 34963
    },
    {
      "buffer": 0,
      "byteLength": 583056,
      "byteOffset": 1836384,
      "byteStride": 8,
      "name": "floatBufferViews",
      "target": 34962
    },
    {
      "buffer": 0,
      "byteLength": 1749168,
      "byteOffset": 2419440,
      "byteStride": 12,
      "name": "floatBufferViews",
      "target": 34962
    }
  ],
  "buffers": [
    {
      "byteLength": 4168608,
      "uri": "scene.bin"
    }
  ],
  "images": [
    {
      "uri": "textures/Material_2_baseColor.jpeg"
    }
  ],
  "materials": [
    {
      "doubleSided": true,
      "name": "Material_2",
      "pbrMetallicRoughness": {
        "baseColorTexture": {
          "index": 0
        },
        "metallicFactor": 0.0,
        "roughnessFactor": 0.6
      }
    }
  ],
  "meshes": [
    {
      "name": "Cylinder001_Material #2_0",
      "primitives": [
        {
          "attributes": {
            "NORMAL": 1,
            "POSITION": 0,
            "TEXCOORD_0": 2
          },
          "indices": 3,
          "material": 0,
          "mode": 4
        }
      ]
    },
    {
      "name": "Curve004_Material #2_0",
      "primitives": [
        {
          "attributes": {
            "NORMAL": 5,
            "POSITION": 4,
            "TEXCOORD_0": 6
          },
          "indices": 7,
          "material": 0,
          "mode": 4
        }
      ]
    },
    {
      "name": "Curve006_Material #2_0",
      "primitives": [
        {
          "attributes": {
            "NORMAL": 9,
            "POSITION": 8,
            "TEXCOORD_0": 10
          },
          "indices": 11,
          "material": 0,
          "mode": 4
        }
      ]
    },
    {
      "name": "Curve005_Material #2_0",
      "primitives": [
        {
          "attributes": {
            "NORMAL": 13,
            "POSITION": 12,
            "TEXCOORD_0": 14
          },
          "indices": 15,
          "material": 0,
          "mode": 4
        }
      ]
    },
    {
      "name": "Curve008_Material #2_0",
      "primitives": [
        {
          "attributes": {
            "NORMAL": 17,
            "POSITION": 16,
            "TEXCOORD_0": 18
          },
          "indices": 19,
          "material": 0,
          "mode": 4
        }
      ]
    },
    {
      "name": "Cylinder002_Material #2_0",
      "primitives": [
        {
          "attributes": {
            "NORMAL": 21,
            "POSITION": 20,
            "TEXCOORD_0": 22
          },
          "indices": 23,
          "material": 0,
          "mode": 4
        }
      ]
    },
    {
      "name": "Curve009_Material #2_0",
      "primitives": [
        {
          "attributes": {
            "NORMAL": 25,
            "POSITION": 24,
            "TEXCOORD_0": 26
          },
          "indices": 27,
          "material": 0,
          "mode": 4
        }
      ]
    },
    {
      "name": "Cylinder003_Material #2_0",
      "primitives": [
        {
          "attributes": {
            "NORMAL": 29,
            "POSITION": 28,
            "TEXCOORD_0": 30
          },
          "indices": 31,
          "material": 0,
          "mode": 4
        }
      ]
    },
    {
      "name": "Curve010_Material #2_0",
      "primitives": [
        {
          "attributes": {
            "NORMAL": 33,
            "POSITION": 32,
            "TEXCOORD_0": 34
          },
          "indices": 35,
          "material": 0,
          "mode": 4
        }
      ]
    },
    {
      "name": "Cylinder004_Material #2_0",
      "primitives": [
        {
          "attributes": {
            "NORMAL": 37,
            "POSITION": 36,
            "TEXCOORD_0": 38
          },
          "indices": 39,
          "material": 0,
          "mode": 4
        }
      ]
    },
    {
      "name": "Curve011_Material #2_0",
      "primitives": [
        {
          "attributes": {
            "NORMAL": 41,
            "POSITION": 40,
            "TEXCOORD_0": 42
          },
          "indices": 43,
          "material": 0,
          "mode": 4
        }
      ]
    },
    {
      "name": "Cylinder005_Material #2_0",
      "primitives": [
        {
          "attributes": {
            "NORMAL": 45,
            "POSITION": 44,
            "TEXCOORD_0": 46
          },
          "indices": 47,
          "material": 0,
          "mode": 4
        }
      ]
    }
  ],
  "nodes": [
    {
      "children": [
        1
      ],
      "matrix": [
        1.0,
        0.0,
        0.0,
        0.0,
        0.0,
        2.220446049250313e-16,
        -1.0,
        0.0,
        0.0,
        1.0,
        2.220446049250313e-16,
        0.0,
        0.0,
        0.0,
        0.0,
        1.0
      ],
      "name": "Sketchfab_model"
    },
    {
      "children": [
        2
      ],
      "matrix": [
        0.02539999969303608,
        0.0,
        0.0,
        0.0,
        0.0,
        0.0,
        0.02539999969303608,
        0.0,
        0.0,
        -0.02539999969303608,
        0.0,
        0.0,
        0.0,
        0.0,
        0.0,
        1.0
      ],
      "name": "4fbdc9e6136d46c1946bec218383c242.fbx"
    },
    {
      "children": [
        3,
        5,
        7,
        9,
        11,
        13,
        15,
        17,
        19,
        21,
        23,
        25
      ],
      "name": "RootNode"
    },
    {
      "children": [
        4
      ],
      "matrix": [
        1.0,
        0.0,
        0.0,
        0.0,
        0.0,
        2.220446049250313e-16,
        -1.0,
        0.0,
        0.0,
        1.0,
        2.220446049250313e-16,
        0.0,
        0.0,
        65.0,
        -3.299681338830851e-06,
        1.0
      ],
      "name": "Cylinder001"
    },
    {
      "mesh": 0,
      "name": "Cylinder001_Material #2_0"
    },
    {
      "children": [
        6
      ],
      "matrix": [
        0.454937834286108,
        6.410927266381476e-18,
        -0.08021787623231699,
        0.0,
        -0.12016774918588902,
        7.682942864898677e-17,
        -0.6815046487560884,
        0.0,
        9.603678581123346e-18,
        0.6920179724693298,
        7.682942864898677e-17,
        0.0,
        -17.783056259155273,
        25.000009536743164,
        0.5243912935256958,
        1.0
      ],
      "name": "Curve004"
    },
    {
      "mesh": 1,
      "name": "Curve004_Material #2_0"
    },
    {
      "children": [
        8
      ],
      "matrix": [
        -0.15799855449955566,
        0.0,
        0.4340976084820273,
        0.0,
        0.6502842080606632,
        0.0,
        0.23668401502314876,
        0.0,
        7.682942864898677e-17,
        0.6920179724693298,
        7.682942864898677e-17,
        0.0,
        8.020794868469238,
        25.000009536743164,
        -17.094223022460938,
        1.0
      ],
      "name": "Curve006"
    },
    {
      "mesh": 2,
      "name": "Curve006_Material #2_0"
    },
    {
      "children": [
        10
      ],
      "matrix": [
        -0.29694025637166915,
        7.693129594142267e-17,
        -0.35387958553679244,
        0.0,
        -0.5301165026785825,
        0.0,
        0.44482060182548966,
        0.0,
        1.1524414297348015e-16,
        0.6920179724693298,
        0.0,
        0.0,
        10.572144508361816,
        25.000009536743164,
        13.275632858276367,
        1.0
      ],
      "name": "Curve005"
    },
    {
      "mesh": 3,
      "name": "Curve005_Material #2_0"
    },
    {
      "children": [
        12
      ],
      "matrix": [
        -0.6454575564160789,
        5.551115123125783e-17,
        -0.7637961395983777,
        0.0,
        -0.7637961395983777,
        0.0,
        0.6454575564160789,
        0.0,
        5.551115123125783e-17,
        1.0,
        0.0,
        0.0,
        -2.675384521484375,
        35.0,
        72.28398132324219,
        1.0
      ],
      "name": "Curve008"
    },
    {
      "mesh": 4,
      "name": "Curve008_Material #2_0"
    },
    {
      "children": [
        14
      ],
      "matrix": [
        1.0,
        0.0,
        0.0,
        0.0,
        0.0,
        2.220446049250313e-16,
        -1.0,
        0.0,
        0.0,
        1.0,
        2.220446049250313e-16,
        0.0,
        -2.2888412475585938,
        35.0,
        73.39129638671875,
        1.0
      ],
      "name": "Cylinder002"
    },
    {
      "mesh": 5,
      "name": "Cylinder002_Material #2_0"
    },
    {
      "children": [
        16
      ],
      "matrix": [
        0.053650312764613295,
        1.6653345369377348e-16,
        -0.9985597848603052,
        0.0,
        -0.9985597848603052,
        2.220446049250313e-16,
        -0.053650312764613184,
        0.0,
        5.551115123125783e-17,
        0.9999999999999999,
        2.220446049250313e-16,
        0.0,
        74.91398620605469,
        35.0,
        -3.8114356994628906,
        1.0
      ],
      "name": "Curve009"
    },
    {
      "mesh": 6,
      "name": "Curve009_Material #2_0"
    },
    {
      "children": [
        18
      ],
      "matrix": [
        0.7280672170668688,
        -5.551115123125783e-17,
        0.6855057457326705,
        0.0,
        0.6855057457326705,
        2.220446049250313e-16,
        -0.7280672170668687,
        0.0,
        -5.551115123125783e-17,
        0.9999999999999998,
        2.220446049250313e-16,
        0.0,
        74.43634796142578,
        35.0,
        -2.74025821685791,
        1.0
      ],
      "name": "Cylinder003"
    },
    {
      "mesh": 7,
      "name": "Cylinder003_Material #2_0"
    },
    {
      "children": [
        20
      ],
      "matrix": [
        -0.16304991939589164,
        -1.1102230246251565e-16,
        0.9866178205287968,
        0.0,
        0.9866178205287969,
        2.220446049250313e-16,
        0.16304991939589164,
        0.0,
        -2.7755575615628914e-16,
        1.0,
        0.0,
        0.0,
        -75.33332061767578,
        35.0,
        3.797806739807129,
        1.0
      ],
      "name": "Curve010"
    },
    {
      "mesh": 8,
      "name": "Curve010_Material #2_0"
    },
    {
      "children": [
        22
      ],
      "matrix": [
        -0.6483329112678002,
        1.1102230246251565e-16,
        -0.7613569702623196,
        0.0,
        -0.7613569702623196,
        0.0,
        0.6483329112678002,
        0.0,
        1.1102230246251565e-16,
        1.0,
        0.0,
        0.0,
        -74.7408676147461,
        35.0,
        2.7856006622314453,
        1.0
      ],
      "name": "Cylinder004"
    },
    {
      "mesh": 9,
      "name": "Cylinder004_Material #2_0"
    },
    {
      "children": [
        24
      ],
      "matrix": [
        -0.9908943145705813,
        9.71445146547012e-17,
        -0.13464195984795418,
        0.0,
        -0.13464195984795418,
        0.0,
        0.9908943145705812,
        0.0,
        9.71445146547012e-17,
        1.0,
        0.0,
        0.0,
        -3.805814504623413,
        35.0,
        -75.22409057617188,
        1.0
      ],
      "name": "Curve011"
    },
    {
      "mesh": 10,
      "name": "Curve011_Material #2_0"
    },
    {
      "children": [
        26
      ],
      "matrix": [
        0.7424191794206207,
        0.0,
        -0.6699356402136044,
        0.0,
        -0.6699356402136044,
        0.0,
        -0.7424191794206207,
        0.0,
        0.0,
        1.0,
        0.0,
        0.0,
        -2.777007579803467,
        35.0,
        -74.66095733642578,
        1.0
      ],
      "name": "Cylinder005"
    },
    {
      "mesh": 11,
      "name": "Cylinder005_Material #2_0"
    }
  ],
  "samplers": [
    {
      "magFilter": 9729,
      "minFilter": 9987,
      "wrapS": 10497,
      "wrapT": 10497
    }
  ],
  "scene": 0,
  "scenes": [
    {
      "name": "Sketchfab_Scene",
      "nodes": [
        0
      ]
    }
  ],
  "textures": [
    {
      "sampler": 0,
      "source": 0
    }
  ]
}
